<svg width="24" height="125" viewBox="0 0 24 125" fill="none" xmlns="http://www.w3.org/2000/svg">
<path d="M6.80017 68.78C6.80017 67.8867 7.02684 67.18 7.48017 66.66C7.94684 66.14 8.56684 65.88 9.34017 65.88C10.0335 65.88 10.6068 66.1 11.0602 66.54C11.5268 66.9933 11.8335 67.6667 11.9802 68.56L12.5602 72.06H11.5802L10.9602 68.8C10.8935 68.4 10.7402 68.0867 10.5002 67.86C10.2602 67.6333 9.96684 67.52 9.62018 67.52C9.11351 67.52 8.71351 67.6467 8.42017 67.9C8.14017 68.1667 8.00017 68.54 8.00017 69.02C8.00017 69.7267 8.22684 70.34 8.68017 70.86C9.13351 71.3933 9.69351 71.7067 10.3602 71.8H13.1802C14.1402 71.8 14.8535 71.64 15.3202 71.32C15.8002 71 16.0402 70.52 16.0402 69.88C16.0402 69.6 16.0135 69.3 15.9602 68.98C15.9068 68.66 15.8335 68.36 15.7402 68.08C15.6468 67.8 15.5468 67.5867 15.4402 67.44L16.3002 68.06L14.8002 67.82L13.9802 67.84L13.9202 66.68L16.5802 66.48C16.6868 66.88 16.7735 67.28 16.8402 67.68C16.9068 68.08 16.9535 68.48 16.9802 68.88C17.0202 69.28 17.0402 69.68 17.0402 70.08C17.0402 71.2667 16.7135 72.1 16.0602 72.58C15.4202 73.06 14.3135 73.3 12.7402 73.3H10.2802C9.68017 73.3 9.15351 73.3333 8.70018 73.4C8.26018 73.48 7.91351 73.5467 7.66017 73.6L8.26017 72.94L8.04018 74.9L7.00017 74.78V72.28L9.26017 71.88L9.32017 72.24C8.94684 72.2133 8.56017 72.0333 8.16017 71.7C7.77351 71.38 7.44684 70.96 7.18017 70.44C6.92684 69.9333 6.80017 69.38 6.80017 68.78Z" fill="#333333"/>
<path d="M6.80017 82.612C6.80017 81.772 6.88018 81.0254 7.04018 80.372C7.20018 79.7187 7.36017 79.1854 7.52017 78.772C7.77351 78.7987 8.04684 78.8187 8.34017 78.832C8.64684 78.8587 8.92017 78.8787 9.16017 78.892C9.41351 78.9054 9.58684 78.912 9.68017 78.912H19.3602C19.5068 78.912 19.7068 78.892 19.9602 78.852C20.2135 78.8254 20.4668 78.7854 20.7202 78.732C20.9735 78.692 21.1735 78.6587 21.3202 78.632L20.7002 79.392L21.1802 77.192L22.1802 77.292L22.1202 79.072V80.172L21.7602 80.552C21.4802 80.5387 21.1535 80.5187 20.7802 80.492C20.4068 80.4654 20.0402 80.4454 19.6802 80.432C19.3202 80.4187 19.0135 80.412 18.7602 80.412H14.8602L15.2202 80.252C15.5002 80.3854 15.7802 80.5787 16.0602 80.832C16.3402 81.0987 16.5735 81.4254 16.7602 81.812C16.9468 82.212 17.0402 82.672 17.0402 83.192C17.0402 84.0854 16.8202 84.8254 16.3802 85.412C15.9535 85.9987 15.3668 86.4387 14.6202 86.732C13.8735 87.0254 13.0402 87.172 12.1202 87.172C11.1868 87.172 10.3135 86.9854 9.50017 86.612C8.68684 86.252 8.03351 85.732 7.54018 85.052C7.04684 84.372 6.80017 83.5587 6.80017 82.612ZM7.56017 80.672L8.18017 80.212C8.08684 80.5187 8.00684 80.8654 7.94018 81.252C7.87351 81.6387 7.84017 82.0587 7.84017 82.512C7.84017 83.2454 8.04018 83.8254 8.44018 84.252C8.84018 84.692 9.36017 85.0054 10.0002 85.192C10.6535 85.3787 11.3535 85.472 12.1002 85.472C12.7802 85.472 13.4068 85.3987 13.9802 85.252C14.5668 85.1054 15.0402 84.852 15.4002 84.492C15.7602 84.132 15.9402 83.6254 15.9402 82.972C15.9402 82.3987 15.7668 81.9187 15.4202 81.532C15.0868 81.1587 14.6535 80.8787 14.1202 80.692C13.6002 80.5054 13.0602 80.412 12.5002 80.412H10.2802C9.92017 80.412 9.55351 80.4254 9.18017 80.452C8.80684 80.4787 8.47351 80.512 8.18017 80.552C7.90017 80.592 7.69351 80.632 7.56017 80.672Z" fill="#333333"/>
<path d="M6.80017 95.6138C6.80017 94.6004 7.02017 93.7538 7.46017 93.0738C7.90017 92.3938 8.50017 91.8804 9.26017 91.5338C10.0335 91.2004 10.9202 91.0338 11.9202 91.0338C12.9335 91.0338 13.8202 91.2004 14.5802 91.5338C15.3535 91.8804 15.9602 92.3938 16.4002 93.0738C16.8402 93.7538 17.0602 94.6004 17.0602 95.6138C17.0602 97.1338 16.5868 98.2671 15.6402 99.0138C14.7068 99.7738 13.4668 100.154 11.9202 100.154C10.9202 100.154 10.0335 99.9804 9.26017 99.6338C8.48684 99.3004 7.88018 98.7938 7.44018 98.1138C7.01351 97.4471 6.80017 96.6138 6.80017 95.6138ZM7.88017 95.6138C7.88017 96.3338 8.08017 96.9004 8.48017 97.3138C8.88017 97.7271 9.38684 98.0138 10.0002 98.1738C10.6268 98.3471 11.2668 98.4338 11.9202 98.4338C12.5868 98.4338 13.2268 98.3471 13.8402 98.1738C14.4668 98.0138 14.9802 97.7271 15.3802 97.3138C15.7802 96.9004 15.9802 96.3338 15.9802 95.6138C15.9802 94.8938 15.7802 94.3271 15.3802 93.9138C14.9935 93.5004 14.4868 93.2004 13.8602 93.0138C13.2468 92.8404 12.6002 92.7538 11.9202 92.7538C11.2535 92.7538 10.6068 92.8404 9.98017 93.0138C9.36684 93.2004 8.86018 93.5004 8.46018 93.9138C8.07351 94.3271 7.88017 94.8938 7.88017 95.6138Z" fill="#333333"/>
<path d="M6.78018 108.309C6.78018 107.376 6.97351 106.676 7.36018 106.209C7.76018 105.756 8.30684 105.456 9.00017 105.309C9.70684 105.163 10.5135 105.089 11.4202 105.089H14.1202C14.2402 105.089 14.4135 105.076 14.6402 105.049C14.8802 105.023 15.1402 104.983 15.4202 104.929C15.7002 104.889 15.9535 104.849 16.1802 104.809L15.4402 105.529L15.8402 103.549L16.8802 103.629V106.349L16.5202 106.729C16.2402 106.716 15.9135 106.696 15.5402 106.669C15.1668 106.643 14.8002 106.623 14.4402 106.609C14.0802 106.596 13.7735 106.589 13.5202 106.589H10.6602C9.88684 106.589 9.24684 106.736 8.74017 107.029C8.24684 107.323 8.00017 107.856 8.00017 108.629C8.00017 109.203 8.15351 109.676 8.46018 110.049C8.76684 110.423 9.16017 110.703 9.64017 110.889C10.1335 111.089 10.6402 111.189 11.1602 111.189H14.1202C14.2402 111.189 14.4135 111.176 14.6402 111.149C14.8802 111.123 15.1402 111.089 15.4202 111.049C15.7002 111.009 15.9535 110.969 16.1802 110.929L15.4602 111.669L15.8402 109.589L16.8802 109.669V112.449L16.5202 112.829C16.2402 112.816 15.9135 112.796 15.5402 112.769C15.1668 112.756 14.8002 112.743 14.4402 112.729C14.0802 112.716 13.7735 112.709 13.5202 112.709H10.2802C9.82684 112.709 9.36684 112.736 8.90017 112.789C8.44684 112.856 7.98684 112.909 7.52017 112.949L8.26017 112.229L8.04018 114.309L7.00017 114.189V111.689L9.22017 111.309L8.74017 111.509C8.58017 111.429 8.34017 111.269 8.02017 111.029C7.71351 110.803 7.42684 110.469 7.16017 110.029C6.90684 109.603 6.78018 109.029 6.78018 108.309Z" fill="#333333"/>
<path d="M6.70018 121.15C6.70018 120.257 6.94017 119.657 7.42017 119.35C7.90017 119.057 8.58684 118.91 9.48017 118.91H16.5002L15.8402 119.55V117.23L16.6402 117.17C16.7068 117.344 16.7802 117.557 16.8602 117.81C16.9535 118.064 17.0468 118.317 17.1402 118.57C17.2335 118.837 17.3068 119.05 17.3602 119.21L16.7002 118.53C16.7802 118.597 16.9202 118.684 17.1202 118.79C17.3335 118.91 17.5668 119.03 17.8202 119.15C18.0868 119.27 18.3268 119.384 18.5402 119.49C18.7535 119.597 18.9068 119.67 19.0002 119.71L18.9202 120.43H9.40017C8.94684 120.43 8.59351 120.51 8.34017 120.67C8.08684 120.83 7.96017 121.137 7.96017 121.59C7.96017 121.884 8.02684 122.184 8.16017 122.49C8.30684 122.81 8.49351 123.097 8.72017 123.35L7.86018 123.89C7.47351 123.41 7.18684 122.937 7.00017 122.47C6.80017 122.017 6.70018 121.577 6.70018 121.15ZM15.8402 120.09H16.8802V123.39L15.8402 123.29V120.09Z" fill="#333333"/>
<path d="M12 1V51" stroke="#333333" stroke-linecap="round"/>
</svg>
