<svg width="23" height="24" viewBox="0 0 23 24" fill="none" xmlns="http://www.w3.org/2000/svg">
<g clip-path="url(#clip0_91_50)">
<path d="M11.0409 5.83785C7.84168 5.90058 5.33246 8.47253 5.39519 11.6718C5.33246 14.871 7.84168 17.443 11.0409 17.5057C14.2402 17.443 16.7494 14.871 16.6867 11.6718C16.7494 8.47253 14.2402 5.90058 11.0409 5.83785ZM11.0409 15.4983C8.90809 15.4356 7.2771 13.6791 7.33983 11.5463C7.40256 9.53894 9.03355 7.90795 11.0409 7.84522C13.1738 7.90795 14.8048 9.6644 14.742 11.7972C14.6793 13.8046 13.0483 15.4356 11.0409 15.4983ZM18.2549 5.58693C18.2549 6.33969 17.6276 6.90427 16.8749 6.84154C16.1221 6.84154 15.5575 6.21423 15.6202 5.46147C15.6202 4.77143 16.2476 4.20686 16.9376 4.20686C17.6903 4.20686 18.2549 4.83416 18.2549 5.58693ZM22.0187 6.967C21.956 5.14781 21.5169 3.51682 20.2623 2.19948C19.0077 0.882146 17.3767 0.443033 15.6202 0.380302C13.8011 0.254842 8.34352 0.254842 6.52434 0.317572C4.70515 0.443033 3.13689 0.819415 1.88229 2.19948C0.627677 3.57955 0.188564 5.14781 0.125834 6.967C0.000373077 8.84891 0.000373077 14.4946 0.125834 16.3766C0.188564 18.1957 0.627677 19.8267 1.88229 21.1441C3.13689 22.4614 4.76788 22.9005 6.52434 22.9633C8.34352 23.0887 13.8011 23.0887 15.6202 22.9633C17.3767 22.9005 18.945 22.4614 20.2623 21.1441C21.5796 19.8267 21.956 18.1957 22.0187 16.3766C22.1442 14.4946 22.1442 8.84891 22.0187 6.967ZM19.6977 18.3839C19.3213 19.3876 18.5686 20.1404 17.6276 20.5795C16.1848 21.2068 12.7346 21.0186 11.1037 21.0186C9.47267 21.0186 6.02249 21.1441 4.57969 20.5795C3.63874 20.2031 2.82324 19.3876 2.50959 18.3839C1.88229 16.8784 2.00775 13.3655 2.00775 11.6718C2.00775 9.97806 1.88229 6.46515 2.44686 4.95962C2.82324 3.95594 3.57601 3.20317 4.51696 2.76406C5.95976 2.13675 9.40994 2.32495 11.0409 2.32495C12.6719 2.32495 16.1221 2.19948 17.5649 2.76406C18.5058 3.14044 19.3213 3.95594 19.635 4.95962C20.1996 6.46515 20.0741 10.0408 20.0741 11.6718C20.0741 13.3028 20.2623 16.9411 19.6977 18.3839Z" fill="#333333"/>
</g>
<defs>
<clipPath id="clip0_91_50">
<rect width="22.0811" height="22.8339" fill="white" transform="translate(0 0.254639)"/>
</clipPath>
</defs>
</svg>
