<svg width="165" height="35" viewBox="0 0 165 35" fill="none" xmlns="http://www.w3.org/2000/svg">
<g clip-path="url(#clip0_105_141)">
<path d="M137.5 12.5V12.7C137.4 15.5 135.4 17.6 132.6 17.6C132.4 17.6 128 17.6 128 17.6V21.4H132.6V28.1H136.4V20.7C139.5 19.3 141.3 16.3 141.3 12.6V12.5H137.5Z" fill="white"/>
<path d="M65.5999 16.7V12.9L56.6999 12.8V6.90002H52.8999V12.8V16.6V19V19.2C52.8999 24.1 56.0999 28 61.4999 28H65.5999V24.2C65.5999 24.2 61.7999 24.2 61.5999 24.2C59.0999 24.2 57.2999 22.7 56.7999 20.4V20.3C56.6999 20 56.6999 19.8 56.6999 19.5C56.6999 19.3 56.6999 19.2 56.6999 19V16.6L65.5999 16.7Z" fill="white"/>
<path d="M8.8999 21.7C6.5999 19.4 6.5999 15.6 8.8999 13.3L20.4999 1.70002L19.7999 1.00002C18.4999 -0.299976 16.3999 -0.299976 14.9999 1.00002L0.999902 15.1C-0.300098 16.4 -0.300098 18.5 0.999902 19.9L15.0999 34C16.3999 35.3 18.4999 35.3 19.8999 34L20.5999 33.3L8.8999 21.7Z" fill="white"/>
<path d="M43.7 15.1L29.6 1.00002C28.3 -0.299976 26.2 -0.299976 24.8 1.00002L10.8 15.1C9.49995 16.4 9.49995 18.5 10.8 19.9L17.7 26.8V18.2C17.7 11.5 22.2 8.00002 26.7 8.00002H27.1C29.9 8.00002 32.6 9.20002 34.4 11.4C36.2 13.6 37 16.3 36.5 19.2C35.7 23.8 31.5999 27.1 26.7999 27C25.2999 26.9 23.9 26.6 22.7 25.8L21.7 25.2V30.8L24.9 34C26.2 35.3 28.3 35.3 29.7 34L43.7999 19.9C45 18.5 45 16.4 43.7 15.1Z" fill="white"/>
<path d="M27.1 22.8C27.4 22.8 27.7 22.8 28 22.7C30.3 22.3 32.2 20.5 32.5 18.2C32.8 16.4 32.2 14.7 30.9 13.5C29.7 12.3 27.9 11.7 26.2 12C23.9 12.4 22 14.2 21.7 16.6C21.4 18.3 22 20 23.2 21.3C24.3 22.3 25.7 22.8 27.1 22.8Z" fill="white"/>
<path d="M121.4 8.5H104.1V12.3H121.4V8.5Z" fill="white"/>
<path d="M121.5 14.2H104.2V18H111.9C111.9 18.6 111.9 19.2 111.9 19.3C111.9 22.1 109.9 24.1 107 24.2C106.9 24.2 106.8 24.2 106.8 24.2V28H106.9C111.8 28 115.7 24.7 115.7 19.4V18H121.5V14.2Z" fill="white"/>
<path d="M71.7 16.9C71.2 16.9 70.8 16.8 70.3 16.7C67.4 15.9 65.6 12.9 66.3 10C67.1 7.10002 70.1 5.30002 73 6.00002C75.9 6.80002 77.7 9.80002 77 12.7C76.6 14.1 75.7 15.3 74.5 16.1C73.6 16.6 72.7 16.9 71.7 16.9ZM71.7 9.00003C70.7 9.00003 69.7 9.70003 69.4 10.8C69.1 12 69.8 13.3 71.1 13.6C71.7 13.8 72.3 13.7 72.9 13.3C73.4 13 73.8 12.5 74 11.9C74.3 10.7 73.6 9.40003 72.3 9.10003C72.1 9.10003 71.9 9.00003 71.7 9.00003Z" fill="white"/>
<path d="M71.7 16.4C71.3 16.4 70.9 16.3 70.4 16.2C67.7 15.5 66.1 12.8 66.8 10.1C67.5 7.39998 70.2 5.79998 72.9 6.49998C75.6 7.19998 77.2 9.89998 76.5 12.6C76.2 13.9 75.4 15 74.2 15.7C73.5 16.1 72.6 16.4 71.7 16.4ZM71.7 8.49998C70.4 8.49998 69.3 9.39998 68.9 10.6C68.5 12.1 69.4 13.7 70.9 14.1C71.6 14.3 72.4 14.2 73.1 13.8C73.8 13.4 74.2 12.8 74.4 12.1C74.8 10.6 73.9 8.99998 72.4 8.59998C72.2 8.59998 71.9 8.49998 71.7 8.49998Z" fill="white"/>
<path d="M165 8.59998H156.1H147.8V12H161.2C160.8 14.3 159.1 16.1 156.8 16.4H154.8C154.8 16.4 154.8 19.1 154.8 19.3C154.8 22.1 152.8 24.1 149.9 24.2C149.8 24.2 149.7 24.2 149.7 24.2V28H149.8C154.7 28 158.5 24.8 158.6 19.6C162.2 18.5 164.6 15.2 164.9 11.2C165.1 9.19998 165 8.59998 165 8.59998Z" fill="white"/>
<path d="M97.6 8.5H87.1H85C85 8.5 85 9.5 85 9.7C85 12.5 85.2 14.5 82.4 14.6C82.3 14.6 82.2 14.6 82.2 14.6V18.4H82.3C86.4 18.4 88.2 16.1 88.7 12.3H93.9C93.9 12.5 93.9 19 93.9 19.2C93.9 22 91.9 24 89 24.1C88.9 24.1 88.8 24.1 88.8 24.1V28H88.9C93.8 28 97.7 24.7 97.7 19.4V12.4V8.5H97.6Z" fill="white"/>
</g>
<defs>
<clipPath id="clip0_105_141">
<rect width="165" height="34.9" fill="white"/>
</clipPath>
</defs>
</svg>
