<svg width="23" height="25" viewBox="0 0 23 25" fill="none" xmlns="http://www.w3.org/2000/svg">
<g clip-path="url(#clip0_91_54)">
<mask id="mask0_91_54" style="mask-type:luminance" maskUnits="userSpaceOnUse" x="0" y="-1" width="24" height="26">
<path d="M9.42427 5.88709C9.36358 6.09484 9.33939 6.31154 9.35276 6.52756V8.43081H7.44387C7.22727 8.41736 7.00997 8.44134 6.80152 8.50169C6.55051 8.5842 6.33195 8.74384 6.17701 8.95786C6.02207 9.17188 5.93866 9.42935 5.93866 9.69357C5.93866 9.95779 6.02207 10.2153 6.17701 10.4293C6.33195 10.6433 6.55051 10.8029 6.80152 10.8854C7.00991 10.9461 7.22723 10.9703 7.44387 10.957H10.3872C10.5605 10.9634 10.7339 10.9514 10.9047 10.9212C11.1325 10.8642 11.3406 10.7467 11.5071 10.581C11.6735 10.4154 11.792 10.2078 11.8501 9.98025C11.8804 9.81014 11.8924 9.63727 11.8858 9.4646V6.53008C11.8993 6.31405 11.8751 6.09733 11.8143 5.8896C11.729 5.64035 11.5679 5.424 11.3536 5.27082C11.1393 5.11764 10.8824 5.03529 10.619 5.03529C10.3555 5.03529 10.0987 5.11764 9.88435 5.27082C9.67002 5.424 9.50895 5.64035 9.42365 5.8896M4.05392 7.87314C4.05255 7.78868 4.06856 7.70484 4.10093 7.62682C4.1333 7.5488 4.18135 7.47827 4.24211 7.41959L8.3359 3.33772C8.3949 3.27705 8.46568 3.22906 8.54388 3.1967C8.62209 3.16434 8.70607 3.14829 8.7907 3.14953H19.8413V21.7359H4.05455L4.05392 7.87314ZM8.37166 -0.000161901C8.22926 -0.000161901 8.08623 0.00862028 7.98837 0.0174025C7.40491 0.0780584 6.86156 0.342628 6.45399 0.764523L1.66389 5.54019C1.24134 5.94545 0.975985 6.48727 0.914892 7.06955C0.90611 7.16741 0.897328 7.30981 0.897328 7.45158V23.1304C0.895408 23.2611 0.901274 23.3918 0.914892 23.5219C0.964185 23.8612 1.12204 24.1754 1.36482 24.4175C1.60761 24.6596 1.92227 24.8166 2.26172 24.8649C2.39215 24.8785 2.52328 24.8844 2.65441 24.8825H21.2433C21.3744 24.8844 21.5056 24.8785 21.636 24.8649C21.9755 24.8166 22.2901 24.6596 22.5329 24.4175C22.7757 24.1754 22.9335 23.8612 22.9828 23.5219C22.9963 23.3918 23.0021 23.2611 23.0004 23.1304V1.7519C23.0021 1.62119 22.9963 1.49049 22.9828 1.36046C22.9335 1.02115 22.7757 0.706929 22.5329 0.464822C22.2901 0.222715 21.9755 0.0657457 21.636 0.0174025C21.5056 0.0038732 21.3744 -0.00199164 21.2433 -0.000161901H8.37166Z" fill="white"/>
</mask>
<g mask="url(#mask0_91_54)">
<path d="M23.6615 -0.661865H0.234863V25.5444H23.6615V-0.661865Z" fill="#333333"/>
</g>
</g>
<defs>
<clipPath id="clip0_91_54">
<rect width="22.1037" height="24.8826" fill="white" transform="translate(0.896484)"/>
</clipPath>
</defs>
</svg>
