<svg width="90" height="90" viewBox="0 0 90 90" fill="none" xmlns="http://www.w3.org/2000/svg">
<path d="M90 45C90 69.8528 69.8528 90 45 90C20.1472 90 0 69.8528 0 45C0 20.1472 20.1472 0 45 0C69.8528 0 90 20.1472 90 45Z" fill="#178BB2"/>
<path d="M89 45C89 69.3005 69.3005 89 45 89C20.6995 89 1 69.3005 1 45C1 20.6995 20.6995 1 45 1C69.3005 1 89 20.6995 89 45Z" stroke="white" stroke-opacity="0.9" stroke-width="2"/>
<path d="M13.826 64.733C13.49 64.721 13.19 64.673 12.926 64.589C12.662 64.511 12.452 64.382 12.296 64.202C12.146 64.016 12.071 63.764 12.071 63.446C12.071 63.026 12.281 62.645 12.701 62.303C13.121 61.961 13.73 61.607 14.528 61.241C14.426 60.803 14.231 60.584 13.943 60.584C13.709 60.584 13.463 60.635 13.205 60.737C12.947 60.833 12.701 60.965 12.467 61.133C12.341 61.217 12.191 61.319 12.017 61.439C11.843 61.559 11.678 61.673 11.522 61.781C11.486 61.733 11.435 61.67 11.369 61.592C11.303 61.514 11.237 61.436 11.171 61.358C11.105 61.28 11.048 61.22 11 61.178C11.606 60.842 12.101 60.485 12.485 60.107C12.875 59.723 13.178 59.294 13.394 58.82C12.938 58.838 12.515 58.853 12.125 58.865C11.741 58.877 11.438 58.886 11.216 58.892C11.216 58.838 11.21 58.763 11.198 58.667C11.192 58.565 11.183 58.46 11.171 58.352C11.159 58.244 11.144 58.16 11.126 58.1C11.402 58.106 11.765 58.106 12.215 58.1C12.671 58.094 13.151 58.082 13.655 58.064C13.703 57.878 13.742 57.686 13.772 57.488C13.808 57.284 13.835 57.074 13.853 56.858C13.949 56.87 14.087 56.888 14.267 56.912C14.447 56.93 14.591 56.939 14.699 56.939C14.675 57.131 14.645 57.317 14.609 57.497C14.579 57.677 14.54 57.854 14.492 58.028C14.996 58.004 15.461 57.977 15.887 57.947C16.319 57.917 16.646 57.89 16.868 57.866C16.862 57.92 16.853 57.998 16.841 58.1C16.835 58.196 16.832 58.295 16.832 58.397C16.832 58.499 16.832 58.577 16.832 58.631C16.688 58.643 16.481 58.658 16.211 58.676C15.947 58.694 15.644 58.712 15.302 58.73C14.966 58.742 14.615 58.757 14.249 58.775C14.057 59.231 13.82 59.645 13.538 60.017C13.64 59.975 13.742 59.942 13.844 59.918C13.952 59.894 14.057 59.882 14.159 59.882C14.459 59.882 14.696 59.966 14.87 60.134C15.05 60.302 15.188 60.563 15.284 60.917C15.476 60.833 15.677 60.752 15.887 60.674C16.097 60.59 16.313 60.503 16.535 60.413C16.823 60.299 17.09 60.194 17.336 60.098C17.582 60.002 17.756 59.933 17.858 59.891C17.888 59.939 17.93 60.014 17.984 60.116C18.038 60.212 18.092 60.308 18.146 60.404C18.2 60.494 18.242 60.563 18.272 60.611C18.164 60.641 18.02 60.686 17.84 60.746C17.666 60.806 17.486 60.869 17.3 60.935C17.114 60.995 16.949 61.052 16.805 61.106C16.547 61.202 16.301 61.295 16.067 61.385C15.839 61.475 15.62 61.562 15.41 61.646C15.458 62.078 15.485 62.6 15.491 63.212C15.431 63.212 15.347 63.215 15.239 63.221C15.131 63.221 15.023 63.221 14.915 63.221C14.813 63.221 14.732 63.224 14.672 63.23C14.672 62.99 14.669 62.768 14.663 62.564C14.657 62.354 14.648 62.162 14.636 61.988C14.084 62.246 13.655 62.495 13.349 62.735C13.049 62.969 12.899 63.188 12.899 63.392C12.899 63.572 12.968 63.719 13.106 63.833C13.244 63.947 13.526 64.01 13.952 64.022C14.096 64.022 14.285 64.019 14.519 64.013C14.759 64.007 15.02 63.998 15.302 63.986C15.584 63.974 15.869 63.959 16.157 63.941C16.445 63.917 16.715 63.893 16.967 63.869C17.225 63.839 17.441 63.809 17.615 63.779C17.597 63.851 17.579 63.944 17.561 64.058C17.549 64.166 17.537 64.271 17.525 64.373C17.519 64.481 17.516 64.565 17.516 64.625C17.27 64.649 16.982 64.67 16.652 64.688C16.322 64.706 15.98 64.718 15.626 64.724C15.278 64.736 14.945 64.742 14.627 64.742C14.309 64.742 14.042 64.739 13.826 64.733Z" fill="white"/>
<path d="M27.195 62.04C27.1583 61.9887 27.0997 61.9227 27.019 61.842C26.9383 61.754 26.854 61.6697 26.766 61.589C26.678 61.5083 26.6047 61.4533 26.546 61.424C27.0593 61.1013 27.5543 60.6613 28.031 60.104C27.8037 59.7227 27.6093 59.2863 27.448 58.795C27.2867 58.2963 27.162 57.7353 27.074 57.112H23.191V57.706C23.191 58.5273 23.092 59.279 22.894 59.961C22.696 60.643 22.3403 61.2883 21.827 61.897C21.7757 61.853 21.7023 61.798 21.607 61.732C21.5117 61.666 21.4127 61.6037 21.31 61.545C21.2073 61.4863 21.123 61.446 21.057 61.424C21.3283 61.1307 21.5557 60.8153 21.739 60.478C21.9223 60.1333 22.058 59.7373 22.146 59.29C22.2413 58.8427 22.289 58.3147 22.289 57.706V56.287H26.997C26.9823 56.1037 26.9713 55.9167 26.964 55.726C26.9567 55.528 26.953 55.3263 26.953 55.121H27.877C27.877 55.5317 27.888 55.9203 27.91 56.287H29.263C29.1457 56.1403 29.0173 55.9937 28.878 55.847C28.7387 55.7003 28.6177 55.5867 28.515 55.506L29.164 55C29.3107 55.1173 29.4793 55.275 29.67 55.473C29.8607 55.6637 30.011 55.836 30.121 55.99L29.725 56.287H30.979V57.112H27.987C28.1043 58.0067 28.317 58.7437 28.625 59.323C28.7937 59.0663 28.944 58.8097 29.076 58.553C29.2153 58.289 29.3327 58.0213 29.428 57.75L30.297 58.102C30.1577 58.4393 29.989 58.773 29.791 59.103C29.6003 59.433 29.3877 59.7557 29.153 60.071C29.2997 60.2323 29.4573 60.379 29.626 60.511C29.802 60.6357 29.989 60.7493 30.187 60.852C30.2457 60.7347 30.3117 60.5807 30.385 60.39C30.4657 60.192 30.528 60.005 30.572 59.829C30.66 59.8803 30.792 59.9427 30.968 60.016C31.144 60.082 31.2797 60.126 31.375 60.148C31.3017 60.456 31.2173 60.731 31.122 60.973C31.034 61.2077 30.946 61.4093 30.858 61.578C30.7627 61.754 30.6233 61.853 30.44 61.875C30.2567 61.897 30.0477 61.8567 29.813 61.754C29.5857 61.6513 29.3657 61.523 29.153 61.369C28.9403 61.2077 28.7387 61.0207 28.548 60.808C28.13 61.2773 27.679 61.688 27.195 62.04ZM23.675 61.226V58.982H26.678V61.226H23.675ZM25.182 64.944C24.8007 64.944 24.533 64.8817 24.379 64.757C24.2323 64.6397 24.159 64.4453 24.159 64.174V61.985H25.094V63.756C25.094 63.8587 25.1197 63.9357 25.171 63.987C25.2297 64.0383 25.3397 64.064 25.501 64.064H27.129C27.3197 64.064 27.4737 64.042 27.591 63.998C27.7157 63.9467 27.811 63.8403 27.877 63.679C27.943 63.5177 27.9907 63.2757 28.02 62.953C28.1227 63.0117 28.262 63.074 28.438 63.14C28.6213 63.1987 28.7753 63.2463 28.9 63.283C28.8413 63.7743 28.7497 64.1373 28.625 64.372C28.5003 64.6067 28.3353 64.7607 28.13 64.834C27.9247 64.9073 27.668 64.944 27.36 64.944H25.182ZM21.992 64.9C21.9407 64.8413 21.8637 64.7717 21.761 64.691C21.6657 64.6177 21.5667 64.548 21.464 64.482C21.3687 64.416 21.2917 64.3683 21.233 64.339C21.409 64.1777 21.5887 63.9723 21.772 63.723C21.9627 63.4663 22.1387 63.1987 22.3 62.92C22.4613 62.6413 22.5787 62.3957 22.652 62.183L23.499 62.535C23.4037 62.777 23.2717 63.0483 23.103 63.349C22.9417 63.6497 22.762 63.9393 22.564 64.218C22.366 64.4967 22.1753 64.724 21.992 64.9ZM30.561 64.801C30.4657 64.603 30.3263 64.3683 30.143 64.097C29.967 63.8257 29.7837 63.5653 29.593 63.316C29.4023 63.0593 29.2337 62.8613 29.087 62.722L29.846 62.205C29.9853 62.3443 30.154 62.5387 30.352 62.788C30.55 63.03 30.7443 63.2867 30.935 63.558C31.1257 63.822 31.2797 64.0567 31.397 64.262C31.3383 64.284 31.2503 64.3317 31.133 64.405C31.023 64.4783 30.913 64.5517 30.803 64.625C30.693 64.6983 30.6123 64.757 30.561 64.801ZM23.62 58.443V57.717H26.766V58.443H23.62ZM26.59 63.514C26.5313 63.3747 26.4433 63.2207 26.326 63.052C26.216 62.876 26.095 62.7073 25.963 62.546C25.8383 62.3773 25.7173 62.2343 25.6 62.117L26.304 61.633C26.4213 61.7503 26.546 61.897 26.678 62.073C26.8173 62.2417 26.9493 62.4103 27.074 62.579C27.1987 62.7477 27.2977 62.898 27.371 63.03C27.3197 63.052 27.2353 63.096 27.118 63.162C27.008 63.228 26.9017 63.294 26.799 63.36C26.6963 63.426 26.6267 63.4773 26.59 63.514ZM24.456 60.544H25.897V59.664H24.456V60.544Z" fill="white"/>
<path d="M37.898 64.67C37.532 64.67 37.241 64.637 37.025 64.571C36.815 64.511 36.665 64.403 36.575 64.247C36.485 64.085 36.44 63.863 36.44 63.581C36.44 63.371 36.44 63.104 36.44 62.78C36.446 62.456 36.452 62.105 36.458 61.727C36.47 61.343 36.479 60.959 36.485 60.575C36.491 60.185 36.494 59.822 36.494 59.486C36.5 59.15 36.503 58.865 36.503 58.631C36.503 58.265 36.5 57.941 36.494 57.659C36.488 57.377 36.479 57.164 36.467 57.02C36.527 57.026 36.617 57.038 36.737 57.056C36.863 57.068 36.989 57.08 37.115 57.092C37.241 57.104 37.337 57.11 37.403 57.11C37.391 57.23 37.379 57.437 37.367 57.731C37.355 58.025 37.343 58.373 37.331 58.775C37.325 59.177 37.316 59.603 37.304 60.053C37.292 60.497 37.283 60.932 37.277 61.358C37.271 61.784 37.265 62.171 37.259 62.519C37.259 62.861 37.259 63.131 37.259 63.329C37.259 63.545 37.301 63.686 37.385 63.752C37.475 63.818 37.664 63.851 37.952 63.851C38.138 63.851 38.387 63.83 38.699 63.788C39.011 63.74 39.347 63.677 39.707 63.599C40.067 63.515 40.415 63.425 40.751 63.329C41.093 63.227 41.384 63.122 41.624 63.014C41.612 63.08 41.597 63.176 41.579 63.302C41.567 63.422 41.555 63.545 41.543 63.671C41.537 63.791 41.534 63.881 41.534 63.941C41.288 64.031 41 64.121 40.67 64.211C40.346 64.295 40.01 64.37 39.662 64.436C39.314 64.508 38.984 64.565 38.672 64.607C38.366 64.649 38.108 64.67 37.898 64.67ZM41.066 58.73C41.036 58.694 40.973 58.625 40.877 58.523C40.787 58.421 40.682 58.307 40.562 58.181C40.448 58.055 40.343 57.941 40.247 57.839C40.157 57.737 40.097 57.671 40.067 57.641L40.445 57.308C40.475 57.344 40.538 57.416 40.634 57.524C40.73 57.626 40.832 57.74 40.94 57.866C41.054 57.986 41.159 58.097 41.255 58.199C41.351 58.301 41.414 58.367 41.444 58.397L41.066 58.73ZM40.31 59.387C40.28 59.351 40.217 59.282 40.121 59.18C40.031 59.078 39.929 58.964 39.815 58.838C39.701 58.712 39.596 58.598 39.5 58.496C39.404 58.394 39.341 58.328 39.311 58.298L39.689 57.965C39.719 58.001 39.782 58.073 39.878 58.181C39.974 58.283 40.076 58.397 40.184 58.523C40.298 58.643 40.403 58.754 40.499 58.856C40.595 58.958 40.658 59.024 40.688 59.054L40.31 59.387Z" fill="white"/>
<path d="M49.571 64.733C48.881 64.745 48.365 64.619 48.023 64.355C47.681 64.097 47.522 63.77 47.546 63.374C47.576 63.008 47.732 62.732 48.014 62.546C48.302 62.354 48.671 62.285 49.121 62.339C49.547 62.387 49.868 62.549 50.084 62.825C50.3 63.101 50.429 63.425 50.471 63.797C50.837 63.659 51.119 63.461 51.317 63.203C51.521 62.945 51.62 62.639 51.614 62.285C51.608 61.781 51.443 61.409 51.119 61.169C50.795 60.923 50.384 60.8 49.886 60.8C49.34 60.8 48.842 60.905 48.392 61.115C47.942 61.325 47.558 61.589 47.24 61.907C47.108 62.039 46.979 62.171 46.853 62.303C46.733 62.435 46.643 62.534 46.583 62.6C46.541 62.552 46.481 62.489 46.403 62.411C46.325 62.333 46.247 62.258 46.169 62.186C46.091 62.108 46.025 62.048 45.971 62.006C46.139 61.874 46.34 61.703 46.574 61.493C46.814 61.277 47.069 61.04 47.339 60.782C47.615 60.518 47.891 60.251 48.167 59.981C48.443 59.711 48.707 59.45 48.959 59.198C49.217 58.946 49.442 58.721 49.634 58.523C49.832 58.319 49.985 58.163 50.093 58.055C49.943 58.073 49.742 58.097 49.49 58.127C49.244 58.151 48.977 58.178 48.689 58.208C48.407 58.238 48.134 58.268 47.87 58.298C47.606 58.328 47.387 58.352 47.213 58.37C47.213 58.31 47.204 58.226 47.186 58.118C47.174 58.01 47.159 57.902 47.141 57.794C47.129 57.686 47.117 57.602 47.105 57.542C47.279 57.542 47.504 57.536 47.78 57.524C48.056 57.512 48.353 57.494 48.671 57.47C48.989 57.446 49.301 57.422 49.607 57.398C49.919 57.368 50.198 57.338 50.444 57.308C50.69 57.272 50.879 57.236 51.011 57.2C51.041 57.23 51.083 57.281 51.137 57.353C51.197 57.425 51.257 57.497 51.317 57.569C51.377 57.635 51.425 57.689 51.461 57.731C51.329 57.851 51.125 58.046 50.849 58.316C50.573 58.58 50.261 58.883 49.913 59.225C49.571 59.567 49.223 59.915 48.869 60.269C49.061 60.209 49.259 60.164 49.463 60.134C49.667 60.098 49.874 60.08 50.084 60.08C50.528 60.08 50.93 60.164 51.29 60.332C51.65 60.5 51.935 60.746 52.145 61.07C52.361 61.394 52.472 61.793 52.478 62.267C52.484 62.741 52.361 63.161 52.109 63.527C51.863 63.893 51.518 64.181 51.074 64.391C50.636 64.601 50.135 64.715 49.571 64.733ZM49.31 63.977C49.376 63.977 49.442 63.977 49.508 63.977C49.58 63.971 49.646 63.965 49.706 63.959C49.688 63.713 49.619 63.506 49.499 63.338C49.385 63.164 49.235 63.062 49.049 63.032C48.815 62.99 48.641 63.014 48.527 63.104C48.413 63.188 48.35 63.293 48.338 63.419C48.332 63.599 48.413 63.737 48.581 63.833C48.755 63.929 48.998 63.977 49.31 63.977Z" fill="white"/>
<path d="M59.355 65.164C59.3183 65.12 59.256 65.054 59.168 64.966C59.0873 64.8853 59.003 64.8047 58.915 64.724C58.8343 64.6433 58.7647 64.5847 58.706 64.548C59.102 64.328 59.465 64.064 59.795 63.756C60.125 63.448 60.4147 63.118 60.664 62.766C60.554 62.678 60.4367 62.5827 60.312 62.48C60.1873 62.3773 60.07 62.2857 59.96 62.205C59.8647 62.3443 59.762 62.4763 59.652 62.601C59.5493 62.7183 59.4467 62.8283 59.344 62.931C59.234 62.8063 59.0837 62.6743 58.893 62.535V63.954H56.253V55.781H58.893V62.249C59.069 62.0583 59.2413 61.8347 59.41 61.578C59.586 61.314 59.7473 61.039 59.894 60.753C60.048 60.4597 60.18 60.1773 60.29 59.906C60.4 59.6273 60.4807 59.3817 60.532 59.169L61.335 59.389C61.3057 59.4917 61.2727 59.6017 61.236 59.719C61.2067 59.829 61.17 59.9427 61.126 60.06H62.259L62.578 60.302C62.468 60.984 62.259 61.633 61.951 62.249C61.643 62.8577 61.2653 63.4113 60.818 63.91C60.3707 64.4087 59.883 64.8267 59.355 65.164ZM64.129 65.142V63.525H61.863V62.678H62.633V60.577H64.129V59.433H64.987V60.577H65.801V61.435H64.987V62.678H66.109V63.525H64.987V65.142H64.129ZM59.256 60.005V58.212H60.543C60.4623 58.0213 60.3523 57.8013 60.213 57.552C60.0737 57.2953 59.949 57.0863 59.839 56.925L60.565 56.606C60.6383 56.7087 60.7227 56.8443 60.818 57.013C60.9133 57.1743 61.005 57.343 61.093 57.519C61.181 57.695 61.2543 57.849 61.313 57.981C61.2617 58.003 61.1847 58.036 61.082 58.08C60.9867 58.124 60.895 58.168 60.807 58.212H62.347C62.3103 58.0873 62.2517 57.937 62.171 57.761C62.0977 57.5777 62.017 57.398 61.929 57.222C61.8483 57.0387 61.7677 56.8883 61.687 56.771L62.435 56.496C62.501 56.5987 62.5743 56.7343 62.655 56.903C62.743 57.0717 62.8273 57.2477 62.908 57.431C62.9887 57.607 63.051 57.7647 63.095 57.904C63.007 57.9333 62.8823 57.981 62.721 58.047C62.5597 58.113 62.435 58.168 62.347 58.212H63.612C63.7 58.0507 63.799 57.86 63.909 57.64C64.019 57.4127 64.1217 57.189 64.217 56.969C64.3197 56.7417 64.3967 56.551 64.448 56.397L65.284 56.672C65.24 56.7893 65.174 56.9397 65.086 57.123C64.998 57.299 64.9027 57.486 64.8 57.684C64.7047 57.8747 64.6093 58.0507 64.514 58.212H66.098V59.994H65.152V59.015H60.213V60.005H59.256ZM59.52 56.529C59.5053 56.419 59.4797 56.276 59.443 56.1C59.4063 55.924 59.3733 55.7993 59.344 55.726C59.806 55.726 60.3047 55.715 60.84 55.693C61.3827 55.6637 61.9253 55.627 62.468 55.583C63.0107 55.5317 63.5203 55.473 63.997 55.407C64.4737 55.341 64.8733 55.264 65.196 55.176L65.691 55.902C65.3243 55.9827 64.8843 56.0597 64.371 56.133C63.865 56.2063 63.326 56.2723 62.754 56.331C62.182 56.3823 61.6173 56.4263 61.06 56.463C60.5027 56.4997 59.9893 56.5217 59.52 56.529ZM57.089 63.052H58.057V61.49H57.089V63.052ZM57.089 60.588H58.057V59.092H57.089V60.588ZM57.089 58.19H58.057V56.694H57.089V58.19ZM61.082 62.084C61.302 61.666 61.467 61.2407 61.577 60.808H60.796C60.73 60.9327 60.664 61.061 60.598 61.193C60.532 61.3177 60.4587 61.4423 60.378 61.567C60.4807 61.6403 60.5943 61.7247 60.719 61.82C60.851 61.908 60.972 61.996 61.082 62.084ZM63.425 62.678H64.129V61.435H63.425V62.678Z" fill="white"/>
<path d="M76.944 65.087C76.9293 64.9477 76.9 64.779 76.856 64.581C76.812 64.383 76.768 64.2327 76.724 64.13H77.516C77.67 64.13 77.7763 64.1043 77.835 64.053C77.901 63.9943 77.934 63.899 77.934 63.767V59.07H74.821V55.462H78.924V64.086C78.924 64.4233 78.8323 64.6727 78.649 64.834C78.473 65.0027 78.1833 65.087 77.78 65.087H76.944ZM69.761 65.109V55.462H73.853V59.07H70.74V65.109H69.761ZM72.335 63.943V59.884H76.328V63.943H72.335ZM73.259 63.173H75.415V62.26H73.259V63.173ZM73.259 61.556H75.415V60.654H73.259V61.556ZM70.74 58.311H72.896V57.596H70.74V58.311ZM75.778 58.311H77.934V57.596H75.778V58.311ZM70.74 56.914H72.896V56.221H70.74V56.914ZM75.778 56.914H77.934V56.221H75.778V56.914Z" fill="white"/>
<path d="M50.9025 40.3575H39.93V42.5025H50.9025V40.3575ZM39.93 36.8375H50.9025V35.1325C50.9025 34.9675 50.8475 34.8117 50.7375 34.665H39.9575C39.9392 34.72 39.93 34.8208 39.93 34.9675V36.8375ZM50.9025 37.525H39.93V39.67H50.9025V37.525ZM50.765 43.85L50.875 43.19H45.21C44.5867 43.96 43.89 44.6842 43.12 45.3625H48.95L50.38 44.0425C52.085 45.0692 52.9375 45.7292 52.9375 46.0225C52.9375 46.2058 52.5525 46.4167 51.7825 46.655C50.5175 47.9017 49.0325 49.0017 47.3275 49.955C50.1875 50.945 53.4783 51.495 57.2 51.605C56.6133 52.375 56.0267 53.1542 55.44 53.9425C51.5533 53.2825 48.235 52.265 45.485 50.89C42.1667 52.4117 38.1608 53.4475 33.4675 53.9975C33.4492 53.9975 33.4217 53.9975 33.385 53.9975C33.1283 53.9975 33 53.8142 33 53.4475C33 53.3008 33.0917 53.2092 33.275 53.1725C37.455 52.3475 40.9658 51.275 43.8075 49.955C42.5608 49.185 41.4517 48.3233 40.48 47.37C38.6467 48.58 36.5292 49.5975 34.1275 50.4225C33.7058 50.4225 33.495 50.3675 33.495 50.2575C33.495 50.1475 33.6142 49.955 33.8525 49.68C37.7392 47.9017 40.59 45.7383 42.405 43.19H39.985L40.095 43.9875C40.04 44.3542 39.3892 44.5375 38.1425 44.5375C37.7575 44.5375 37.5833 44.2992 37.62 43.8225L37.73 42.475V34.115L37.5925 32.8225C37.5925 32.7492 37.62 32.7125 37.675 32.7125C37.73 32.7125 38.0325 32.8317 38.5825 33.07C39.1508 33.3083 39.7833 33.6108 40.48 33.9775H42.405L43.4775 31.3925H36.19C35.75 31.3925 35.145 31.4842 34.375 31.6675L33.275 30.375C33.6417 30.5583 34.43 30.65 35.64 30.65H52.965C53.2767 30.3567 53.7717 29.8067 54.45 29C55.9167 30.0817 56.65 30.8242 56.65 31.2275C56.65 31.3375 56.54 31.3925 56.32 31.3925H46.035L43.4225 33.9775H50.38L51.6725 32.52C53.3042 33.3633 54.12 33.9683 54.12 34.335L53.1025 35.5725V42.475L53.2675 43.9875C53.2492 44.2442 52.5983 44.3725 51.315 44.3725C50.9483 44.3725 50.765 44.1983 50.765 43.85ZM41.3875 46.765C42.5975 47.7 43.9267 48.4975 45.375 49.1575C46.8783 48.3508 48.1525 47.4617 49.1975 46.49C49.1608 46.3433 49.1058 46.2242 49.0325 46.1325H42.2125C41.9375 46.3525 41.6625 46.5633 41.3875 46.765Z" fill="white"/>
<path fill-rule="evenodd" clip-rule="evenodd" d="M28.5777 31.4107L26 30.8611L26.2966 30.4586L28.8744 31.0083L28.5777 31.4107Z" fill="white"/>
<path fill-rule="evenodd" clip-rule="evenodd" d="M30.2998 28.9942L28.7363 27.3125L29.1025 26.972L30.666 28.6537L30.2998 28.9942Z" fill="white"/>
<path fill-rule="evenodd" clip-rule="evenodd" d="M32.7797 27.3775L32.4189 24.7666L32.8419 24.5L33.2027 27.1109L32.7797 27.3775Z" fill="white"/>
<mask id="mask0_139_382" style="mask-type:alpha" maskUnits="userSpaceOnUse" x="0" y="0" width="90" height="90">
<path d="M90 45C90 69.8528 69.8528 90 45 90C20.1472 90 0 69.8528 0 45C0 20.1472 20.1472 0 45 0C69.8528 0 90 20.1472 90 45Z" fill="#178BB2"/>
</mask>
<g mask="url(#mask0_139_382)">
<path d="M-8.5 73.375C-8.5 72.0633 -7.0954 71 -5.36274 71H84.3627C86.0954 71 87.5 72.0633 87.5 73.375V78.125C87.5 79.4367 86.0954 80.5 84.3627 80.5H-5.36275C-7.0954 80.5 -8.5 79.4367 -8.5 78.125V73.375Z" fill="white"/>
<path d="M15.66 77.4078C15.6875 77.2349 15.7268 77.0307 15.7778 76.7949C15.8328 76.5592 15.8957 76.3098 15.9664 76.0466C16.0371 75.7794 16.1137 75.5103 16.1962 75.2393C16.2787 74.9643 16.3632 74.6991 16.4496 74.4437C16.536 74.1884 16.6205 73.9586 16.703 73.7543H15V73.2829H17.2687V73.6364C17.1901 73.8171 17.1057 74.0332 17.0153 74.2846C16.9289 74.536 16.8425 74.8052 16.756 75.0919C16.6735 75.3748 16.593 75.6596 16.5144 75.9464C16.4398 76.2292 16.373 76.4983 16.3141 76.7537C16.2552 77.0051 16.21 77.2232 16.1786 77.4078H15.66Z" fill="#5CA0A4"/>
<path d="M18.5596 77.6789L18.2414 77.5198L20.5455 73L20.8637 73.165L18.5596 77.6789Z" fill="#5CA0A4"/>
<path d="M22.8255 77.4078V73.9252L22.0477 74.4202L21.7825 73.9959L22.9434 73.2711H23.3264V77.4078H22.8255Z" fill="#5CA0A4"/>
<path d="M28.805 77.4844C28.475 77.4844 28.1705 77.4196 27.8916 77.2899C27.6166 77.1603 27.3927 76.9462 27.2198 76.6476L27.6618 76.3766C27.7914 76.5651 27.9486 76.7105 28.1332 76.8126C28.3178 76.9148 28.5476 76.9658 28.8226 76.9658C29.0976 76.9658 29.3117 76.9108 29.465 76.8008C29.6182 76.6908 29.6948 76.5298 29.6948 76.3176C29.6948 76.1919 29.6673 76.0839 29.6123 75.9935C29.5573 75.8992 29.4473 75.8148 29.2823 75.7401C29.1173 75.6655 28.8678 75.5948 28.5339 75.528C27.7757 75.363 27.3966 74.976 27.3966 74.3671C27.3966 74.1314 27.4536 73.9252 27.5675 73.7484C27.6814 73.5716 27.8405 73.4341 28.0448 73.3359C28.2491 73.2337 28.4868 73.1827 28.7578 73.1827C29.0878 73.1827 29.3707 73.2514 29.6064 73.3889C29.846 73.5264 30.0444 73.6953 30.2016 73.8957L29.7891 74.2316C29.6633 74.0941 29.52 73.9723 29.3589 73.8662C29.1978 73.7602 28.9955 73.7071 28.7519 73.7071C28.5241 73.7071 28.3335 73.7621 28.1803 73.8721C28.031 73.9782 27.9564 74.1353 27.9564 74.3436C27.9564 74.4535 27.98 74.5537 28.0271 74.6441C28.0782 74.7305 28.1705 74.8071 28.3041 74.8739C28.4376 74.9407 28.6321 75.0016 28.8875 75.0566C29.3746 75.1587 29.7242 75.3119 29.9364 75.5162C30.1524 75.7205 30.2605 75.9857 30.2605 76.3117C30.2605 76.5632 30.1976 76.7773 30.0719 76.954C29.9501 77.1269 29.7792 77.2585 29.5592 77.3489C29.3432 77.4392 29.0917 77.4844 28.805 77.4844Z" fill="#5CA0A4"/>
<path d="M32.3948 77.4549C32.108 77.4628 31.8703 77.398 31.6817 77.2605C31.4971 77.119 31.4048 76.9167 31.4048 76.6535C31.4048 76.461 31.4657 76.2941 31.5875 76.1526C31.7132 76.0112 31.8723 75.9012 32.0648 75.8226C32.2612 75.7401 32.4635 75.6989 32.6717 75.6989C32.7935 75.691 32.9055 75.7028 33.0076 75.7342C33.1098 75.7617 33.1981 75.803 33.2728 75.858V75.5044C33.2728 75.2844 33.2256 75.141 33.1314 75.0743C33.041 75.0075 32.8996 74.9741 32.7071 74.9741C32.5421 74.9741 32.3653 75.0035 32.1767 75.0625C31.9921 75.1214 31.835 75.196 31.7053 75.2864L31.4578 74.8739C31.6189 74.7718 31.8094 74.6853 32.0294 74.6146C32.2533 74.5439 32.4792 74.5085 32.7071 74.5085C33.0685 74.5085 33.3376 74.5812 33.5144 74.7266C33.6912 74.868 33.7796 75.1273 33.7796 75.5044V76.9246C33.7796 76.9992 33.7992 77.0424 33.8385 77.0542C33.8778 77.066 33.9662 77.0562 34.1037 77.0248V77.3665C34.0526 77.3862 33.9878 77.4058 33.9092 77.4255C33.8306 77.4451 33.7501 77.4549 33.6676 77.4549C33.5419 77.4549 33.4515 77.4314 33.3965 77.3842C33.3415 77.3371 33.3042 77.2526 33.2846 77.1308C33.1785 77.2369 33.0449 77.3155 32.8839 77.3665C32.7228 77.4176 32.5598 77.4471 32.3948 77.4549ZM32.4007 76.9894C32.5657 76.9855 32.7149 76.9619 32.8485 76.9187C32.986 76.8716 33.094 76.8067 33.1726 76.7242C33.2512 76.6378 33.2865 76.5357 33.2787 76.4178C33.2708 76.3078 33.2139 76.2292 33.1078 76.1821C33.0057 76.135 32.874 76.1153 32.713 76.1232C32.5676 76.1271 32.4341 76.1546 32.3123 76.2057C32.1905 76.2528 32.0923 76.3157 32.0176 76.3942C31.9469 76.4728 31.9116 76.5612 31.9116 76.6594C31.9155 76.7694 31.9607 76.8539 32.0471 76.9128C32.1335 76.9678 32.2514 76.9933 32.4007 76.9894Z" fill="#5CA0A4"/>
<path d="M36.2421 77.4726C35.9749 77.4726 35.7726 77.4215 35.6351 77.3194C35.4976 77.2133 35.4289 77.013 35.4289 76.7183V75.0389H34.8573V74.5793H35.4289V73.5657H35.9533V74.5793H36.7724V75.0389H35.9533V76.6064C35.9533 76.7596 35.9867 76.8637 36.0535 76.9187C36.1242 76.9698 36.2283 76.9953 36.3658 76.9953C36.4365 76.9953 36.5092 76.9855 36.5838 76.9658C36.6624 76.9423 36.7253 76.9187 36.7724 76.8951V77.3842C36.7095 77.4117 36.629 77.4333 36.5308 77.449C36.4326 77.4648 36.3363 77.4726 36.2421 77.4726Z" fill="#5CA0A4"/>
<path d="M44.8757 74.9918V75.3984H40.5976V74.9918H44.8757Z" fill="#5CA0A4"/>
<path d="M50.0159 77.4726C49.7801 77.4726 49.57 77.4215 49.3853 77.3194C49.2046 77.2133 49.0632 77.066 48.961 76.8774C48.8589 76.6889 48.8078 76.4728 48.8078 76.2292C48.8078 76.0014 48.8648 75.801 48.9787 75.6282C49.0966 75.4514 49.24 75.3198 49.4089 75.2334C49.2635 75.143 49.1437 75.0251 49.0494 74.8798C48.9591 74.7305 48.9139 74.5537 48.9139 74.3494C48.9139 74.1255 48.9611 73.9291 49.0553 73.7602C49.1496 73.5873 49.2793 73.4537 49.4443 73.3595C49.6093 73.2652 49.7998 73.218 50.0159 73.218C50.2319 73.218 50.4225 73.2652 50.5875 73.3595C50.7524 73.4537 50.8821 73.5873 50.9764 73.7602C51.0707 73.9291 51.1178 74.1255 51.1178 74.3494C51.1178 74.5537 51.0707 74.7305 50.9764 74.8798C50.8821 75.0251 50.7623 75.143 50.6169 75.2334C50.7898 75.3198 50.9332 75.4514 51.0471 75.6282C51.161 75.801 51.218 76.0014 51.218 76.2292C51.218 76.4728 51.1669 76.6889 51.0648 76.8774C50.9626 77.066 50.8212 77.2133 50.6405 77.3194C50.4598 77.4215 50.2516 77.4726 50.0159 77.4726ZM50.0159 76.9894C50.2319 76.9894 50.4028 76.9246 50.5285 76.7949C50.6542 76.6653 50.7171 76.4748 50.7171 76.2233C50.7171 75.9798 50.6542 75.7892 50.5285 75.6517C50.4028 75.5142 50.2319 75.4455 50.0159 75.4455C49.7998 75.4455 49.6269 75.5142 49.4973 75.6517C49.3716 75.7892 49.3087 75.9798 49.3087 76.2233C49.3087 76.4748 49.3716 76.6653 49.4973 76.7949C49.6269 76.9246 49.7998 76.9894 50.0159 76.9894ZM50.0159 75.033C50.2044 75.033 50.3498 74.9741 50.4519 74.8562C50.558 74.7344 50.611 74.5675 50.611 74.3553C50.611 74.1471 50.5541 73.9861 50.4401 73.8721C50.3301 73.7582 50.1887 73.7012 50.0159 73.7012C49.8391 73.7012 49.6957 73.7582 49.5857 73.8721C49.4757 73.9861 49.4207 74.1471 49.4207 74.3553C49.4207 74.5675 49.4718 74.7344 49.5739 74.8562C49.676 74.9741 49.8234 75.033 50.0159 75.033Z" fill="#5CA0A4"/>
<path d="M52.7135 77.6789L52.3953 77.5198L54.6994 73L55.0176 73.165L52.7135 77.6789Z" fill="#5CA0A4"/>
<path d="M57.1856 77.4726C56.9067 77.4726 56.6671 77.396 56.4667 77.2428C56.2664 77.0857 56.125 76.8696 56.0425 76.5946L56.508 76.4355C56.5316 76.518 56.5708 76.6024 56.6258 76.6889C56.6808 76.7714 56.7535 76.8421 56.8439 76.901C56.9342 76.9599 57.0442 76.9894 57.1739 76.9894C57.4096 76.9894 57.5942 76.9305 57.7278 76.8126C57.8614 76.6908 57.9281 76.5023 57.9281 76.2469C57.9281 76.0151 57.8555 75.8285 57.7101 75.6871C57.5687 75.5457 57.3781 75.475 57.1385 75.475H56.8969V75.0094H57.1385C57.3624 75.0094 57.5314 74.9446 57.6453 74.815C57.7631 74.6853 57.8221 74.5203 57.8221 74.32C57.8221 74.0961 57.7553 73.937 57.6217 73.8427C57.4921 73.7484 57.3428 73.7012 57.1739 73.7012C57.0599 73.7012 56.9617 73.7307 56.8792 73.7896C56.7967 73.8486 56.728 73.9212 56.673 74.0077C56.618 74.0902 56.5767 74.1707 56.5492 74.2493L56.0896 74.0666C56.1917 73.7916 56.341 73.5814 56.5374 73.4361C56.7339 73.2907 56.9499 73.218 57.1856 73.218C57.5314 73.218 57.8103 73.3162 58.0224 73.5127C58.2385 73.7052 58.3465 73.9684 58.3465 74.3023C58.3465 74.5144 58.2915 74.703 58.1815 74.868C58.0715 75.033 57.9262 75.1548 57.7455 75.2334C57.9537 75.308 58.1226 75.4376 58.2522 75.6223C58.3819 75.8069 58.4467 76.021 58.4467 76.2646C58.4467 76.6221 58.3387 76.9128 58.1226 77.1367C57.9105 77.3607 57.5981 77.4726 57.1856 77.4726Z" fill="#5CA0A4"/>
<path d="M60.4172 77.4078V73.9252L59.6394 74.4202L59.3742 73.9959L60.5351 73.2711H60.9181V77.4078H60.4172Z" fill="#5CA0A4"/>
<path d="M66.0019 77.4078V73.7896H64.7055V73.2829H67.8345V73.7896H66.544V77.4078H66.0019Z" fill="#5CA0A4"/>
<path d="M69.0113 77.4078V73.1827H69.5417V74.9446C69.6124 74.8268 69.7165 74.7246 69.854 74.6382C69.9915 74.5518 70.1506 74.5085 70.3313 74.5085C70.6299 74.5085 70.8715 74.6048 71.0561 74.7973C71.2447 74.9859 71.339 75.2609 71.339 75.6223V77.4078H70.8145V75.7342C70.8145 75.4867 70.7595 75.3021 70.6495 75.1803C70.5395 75.0546 70.3961 74.9918 70.2194 74.9918C70.019 74.9918 69.856 75.0585 69.7303 75.1921C69.6045 75.3218 69.5417 75.4966 69.5417 75.7166V77.4078H69.0113Z" fill="#5CA0A4"/>
<path d="M73.68 77.4726C73.3815 77.4726 73.1399 77.3783 72.9552 77.1898C72.7706 76.9973 72.6782 76.7203 72.6782 76.3589V74.5793H73.2027V76.2528C73.2027 76.4964 73.2577 76.681 73.3677 76.8067C73.4777 76.9285 73.6191 76.9894 73.792 76.9894C73.9923 76.9894 74.1554 76.9246 74.2811 76.7949C74.4107 76.6614 74.4755 76.4826 74.4755 76.2587V74.5793H75V77.4078H74.5227L74.4991 77.0424C74.4166 77.1603 74.3047 77.2624 74.1632 77.3489C74.0257 77.4314 73.8647 77.4726 73.68 77.4726Z" fill="#5CA0A4"/>
<path d="M30.932 12.568C30.124 12.568 29.564 12.384 29.252 12.016C29.084 11.824 29 11.608 29 11.368C29 10.792 29.432 10.164 30.296 9.484C30.576 9.26 30.844 9.148 31.1 9.148C31.164 9.148 31.196 9.16 31.196 9.184C31.196 9.24 31.096 9.308 30.896 9.388C30.552 9.532 30.256 9.796 30.008 10.18C29.752 10.572 29.624 10.944 29.624 11.296C29.624 11.944 30.136 12.268 31.16 12.268C31.792 12.268 32.352 12.172 32.84 11.98C33.912 11.564 34.768 11.024 35.408 10.36C35.968 9.792 36.248 9.248 36.248 8.728C36.248 8.096 35.864 7.78 35.096 7.78C33.88 7.78 32.976 7.628 32.384 7.324C31.896 7.076 31.652 6.748 31.652 6.34C31.652 5.636 32.184 5.052 33.248 4.588C34.112 4.196 34.936 4 35.72 4C36.36 4 36.864 4.132 37.232 4.396C37.328 4.452 37.376 4.532 37.376 4.636C37.376 4.788 37.28 4.944 37.088 5.104C36.904 5.264 36.768 5.336 36.68 5.32C36.664 5.32 36.692 5.268 36.764 5.164C36.868 5.036 36.92 4.92 36.92 4.816C36.92 4.72 36.884 4.636 36.812 4.564C36.596 4.332 36.2 4.216 35.624 4.216C34.984 4.216 34.328 4.356 33.656 4.636C32.952 4.94 32.524 5.296 32.372 5.704C32.292 5.912 32.252 6.1 32.252 6.268C32.252 6.98 33.248 7.336 35.24 7.336C36.44 7.336 37.04 7.696 37.04 8.416C37.04 9.024 36.652 9.716 35.876 10.492C35.084 11.268 34.228 11.816 33.308 12.136C32.484 12.424 31.692 12.568 30.932 12.568Z" fill="white"/>
<path d="M39.4645 11.692C39.2565 11.644 39.0605 11.532 38.8765 11.356C38.8365 11.316 38.8165 11.256 38.8165 11.176C38.8165 10.856 38.9605 10.408 39.2485 9.832C39.0245 10.12 38.8405 10.356 38.6965 10.54C38.5525 10.724 38.4445 10.856 38.3725 10.936C38.0605 11.296 37.8005 11.512 37.5925 11.584C37.5205 11.608 37.4485 11.62 37.3765 11.62C37.0805 11.62 36.9085 11.5 36.8605 11.26C36.8285 11.188 36.8125 11.088 36.8125 10.96C36.8125 10.568 37.0725 9.82 37.5925 8.716C37.7125 8.46 37.8485 8.332 38.0005 8.332C38.1125 8.332 38.2205 8.416 38.3245 8.584L37.8205 9.58C37.6445 9.924 37.5085 10.22 37.4125 10.468C37.3245 10.716 37.2805 10.908 37.2805 11.044C37.2805 11.236 37.3445 11.332 37.4725 11.332C37.6805 11.332 38.0165 11.064 38.4805 10.528C38.7285 10.24 38.9685 9.92 39.2005 9.568C39.4405 9.216 39.6765 8.832 39.9085 8.416C39.9565 8.32 40.0285 8.272 40.1245 8.272C40.2045 8.272 40.2805 8.308 40.3525 8.38C40.4325 8.444 40.4645 8.492 40.4485 8.524C39.6725 10.132 39.2845 11.056 39.2845 11.296C39.2845 11.392 39.3165 11.432 39.3805 11.416C40.0285 11.36 40.7245 10.788 41.4685 9.7C41.5085 9.628 41.5525 9.588 41.6005 9.58C41.6485 9.564 41.6725 9.58 41.6725 9.628C41.6725 9.66 41.6565 9.704 41.6245 9.76C41.2725 10.312 40.8525 10.796 40.3645 11.212C39.9325 11.572 39.6325 11.732 39.4645 11.692Z" fill="white"/>
<path d="M45.5463 11.728C45.3703 11.744 45.2023 11.7 45.0423 11.596C44.8823 11.484 44.8023 11.36 44.8023 11.224C44.8023 10.976 45.0383 10.5 45.5103 9.796C46.0303 9.02 46.2903 8.572 46.2903 8.452C46.2903 8.38 46.2543 8.34 46.1823 8.332C45.9503 8.348 45.6383 8.532 45.2463 8.884C44.6463 9.436 44.0423 10.268 43.4343 11.38C43.4103 11.42 43.3183 11.44 43.1583 11.44C42.9823 11.44 42.8943 11.368 42.8943 11.224C42.8943 10.976 43.1303 10.5 43.6023 9.796C44.1223 9.02 44.3823 8.572 44.3823 8.452C44.3823 8.38 44.3463 8.34 44.2743 8.332C44.0423 8.348 43.6823 8.58 43.1943 9.028C42.4903 9.684 41.8423 10.556 41.2503 11.644C41.2423 11.66 41.2223 11.672 41.1903 11.68C41.1663 11.688 41.1183 11.692 41.0463 11.692C40.7423 11.692 40.6063 11.644 40.6383 11.548C40.7263 11.316 40.8783 10.968 41.0943 10.504C41.3183 10.04 41.6063 9.456 41.9583 8.752C42.1983 8.28 42.4423 8.044 42.6903 8.044C42.7703 8.044 42.8223 8.064 42.8463 8.104C42.8623 8.128 42.6943 8.472 42.3423 9.136C42.1743 9.456 42.0423 9.712 41.9463 9.904C41.8503 10.088 41.7823 10.208 41.7423 10.264C41.8783 10.128 42.0383 9.96 42.2223 9.76C42.4143 9.56 42.6343 9.328 42.8823 9.064C43.2743 8.624 43.7063 8.296 44.1783 8.08C44.2743 8.04 44.3743 8.02 44.4783 8.02C44.8223 8.02 44.9943 8.168 44.9943 8.464C44.9943 8.632 44.9263 8.832 44.7903 9.064C45.1583 8.632 45.5903 8.304 46.0863 8.08C46.1983 8.032 46.3263 8.008 46.4703 8.008C46.7983 8.008 46.9623 8.128 46.9623 8.368C46.9623 8.52 46.8863 8.7 46.7343 8.908C45.8703 10.116 45.4383 10.928 45.4383 11.344C45.4383 11.432 45.4663 11.488 45.5223 11.512C45.6423 11.56 45.8703 11.488 46.2063 11.296C46.6303 11.048 47.0223 10.7 47.3823 10.252C47.4303 10.196 47.4783 10.168 47.5263 10.168C47.5583 10.168 47.5743 10.18 47.5743 10.204C47.5743 10.236 47.5503 10.284 47.5023 10.348C47.1023 10.86 46.7063 11.236 46.3143 11.476C45.9943 11.676 45.7383 11.76 45.5463 11.728Z" fill="white"/>
<path d="M51.8744 11.728C51.6984 11.744 51.5304 11.7 51.3704 11.596C51.2104 11.484 51.1304 11.36 51.1304 11.224C51.1304 10.976 51.3664 10.5 51.8384 9.796C52.3584 9.02 52.6184 8.572 52.6184 8.452C52.6184 8.38 52.5824 8.34 52.5104 8.332C52.2784 8.348 51.9664 8.532 51.5744 8.884C50.9744 9.436 50.3704 10.268 49.7624 11.38C49.7384 11.42 49.6464 11.44 49.4864 11.44C49.3104 11.44 49.2224 11.368 49.2224 11.224C49.2224 10.976 49.4584 10.5 49.9304 9.796C50.4504 9.02 50.7104 8.572 50.7104 8.452C50.7104 8.38 50.6744 8.34 50.6024 8.332C50.3704 8.348 50.0104 8.58 49.5224 9.028C48.8184 9.684 48.1704 10.556 47.5784 11.644C47.5704 11.66 47.5504 11.672 47.5184 11.68C47.4944 11.688 47.4464 11.692 47.3744 11.692C47.0704 11.692 46.9344 11.644 46.9664 11.548C47.0544 11.316 47.2064 10.968 47.4224 10.504C47.6464 10.04 47.9344 9.456 48.2864 8.752C48.5264 8.28 48.7704 8.044 49.0184 8.044C49.0984 8.044 49.1504 8.064 49.1744 8.104C49.1904 8.128 49.0224 8.472 48.6704 9.136C48.5024 9.456 48.3704 9.712 48.2744 9.904C48.1784 10.088 48.1104 10.208 48.0704 10.264C48.2064 10.128 48.3664 9.96 48.5504 9.76C48.7424 9.56 48.9624 9.328 49.2104 9.064C49.6024 8.624 50.0344 8.296 50.5064 8.08C50.6024 8.04 50.7024 8.02 50.8064 8.02C51.1504 8.02 51.3224 8.168 51.3224 8.464C51.3224 8.632 51.2544 8.832 51.1184 9.064C51.4864 8.632 51.9184 8.304 52.4144 8.08C52.5264 8.032 52.6544 8.008 52.7984 8.008C53.1264 8.008 53.2904 8.128 53.2904 8.368C53.2904 8.52 53.2144 8.7 53.0624 8.908C52.1984 10.116 51.7664 10.928 51.7664 11.344C51.7664 11.432 51.7944 11.488 51.8504 11.512C51.9704 11.56 52.1984 11.488 52.5344 11.296C52.9584 11.048 53.3504 10.7 53.7104 10.252C53.7584 10.196 53.8064 10.168 53.8544 10.168C53.8864 10.168 53.9024 10.18 53.9024 10.204C53.9024 10.236 53.8784 10.284 53.8304 10.348C53.4304 10.86 53.0344 11.236 52.6424 11.476C52.3224 11.676 52.0664 11.76 51.8744 11.728Z" fill="white"/>
<path d="M54.4946 11.704C54.2626 11.704 54.0586 11.648 53.8826 11.536C53.6506 11.376 53.5346 11.144 53.5346 10.84C53.5346 10.512 53.6746 10.112 53.9546 9.64C54.3306 9.024 54.8826 8.484 55.6106 8.02C55.7946 7.9 55.9786 7.84 56.1626 7.84C56.4026 7.84 56.5746 7.916 56.6786 8.068C56.7426 8.156 56.7746 8.256 56.7746 8.368C56.7746 8.704 56.5026 9.072 55.9586 9.472C55.7986 9.584 55.6266 9.688 55.4426 9.784C55.2666 9.872 55.0746 9.936 54.8666 9.976L54.3506 10.084C54.1586 10.428 54.0626 10.716 54.0626 10.948C54.0626 11.268 54.2506 11.428 54.6266 11.428C54.9226 11.428 55.2826 11.304 55.7066 11.056C56.2746 10.728 56.7626 10.272 57.1706 9.688C57.2346 9.592 57.2946 9.544 57.3506 9.544C57.3746 9.544 57.3866 9.56 57.3866 9.592C57.3866 9.632 57.3586 9.692 57.3026 9.772C56.5266 10.94 55.6506 11.58 54.6746 11.692C54.6426 11.7 54.6106 11.704 54.5786 11.704C54.5546 11.704 54.5266 11.704 54.4946 11.704ZM54.4946 9.88C54.7186 9.88 55.0066 9.78 55.3586 9.58C55.8546 9.3 56.2026 8.94 56.4026 8.5C56.4586 8.388 56.4866 8.296 56.4866 8.224C56.4866 8.152 56.4586 8.116 56.4026 8.116C56.2986 8.116 56.0866 8.244 55.7666 8.5C55.5346 8.7 55.3066 8.916 55.0826 9.148C54.8666 9.372 54.6586 9.612 54.4586 9.868C54.4506 9.876 54.4626 9.88 54.4946 9.88Z" fill="white"/>
<path d="M56.51 11.752C56.398 11.752 56.342 11.716 56.342 11.644C56.342 11.636 56.35 11.608 56.366 11.56C56.742 10.84 57.186 9.812 57.698 8.476C57.754 8.332 57.85 8.208 57.986 8.104C58.122 7.992 58.238 7.936 58.334 7.936C58.438 7.936 58.482 7.992 58.466 8.104C58.386 8.272 58.29 8.488 58.178 8.752C58.066 9.016 57.934 9.324 57.782 9.676C58.006 9.38 58.338 9.048 58.778 8.68C59.002 8.496 59.194 8.344 59.354 8.224C59.522 8.104 59.662 8.016 59.774 7.96C59.886 7.904 60.01 7.876 60.146 7.876C60.306 7.876 60.442 7.916 60.554 7.996C60.666 8.076 60.722 8.168 60.722 8.272C60.722 8.336 60.69 8.408 60.626 8.488C60.57 8.56 60.51 8.596 60.446 8.596C60.414 8.596 60.346 8.564 60.242 8.5C60.146 8.428 60.042 8.392 59.93 8.392C59.81 8.392 59.67 8.428 59.51 8.5C58.494 8.956 57.618 9.984 56.882 11.584C56.834 11.696 56.71 11.752 56.51 11.752Z" fill="white"/>
<path d="M22.0407 24.884C21.9127 24.884 21.7927 24.84 21.6807 24.752C21.5527 24.64 21.4927 24.52 21.5007 24.392C21.5567 23.776 21.6847 23.132 21.8847 22.46C22.0847 21.796 22.3567 21.1 22.7007 20.372C23.1647 19.372 23.7047 18.444 24.3207 17.588C24.4407 17.42 24.6767 17.356 25.0287 17.396C25.1247 17.404 25.1727 17.448 25.1727 17.528C25.1727 17.592 25.1487 17.644 25.1007 17.684C24.6207 18.012 24.1167 18.712 23.5887 19.784C23.6127 19.744 23.6887 19.656 23.8167 19.52C23.9447 19.384 24.1207 19.192 24.3447 18.944C24.9127 18.344 25.3327 18.044 25.6047 18.044C25.6607 18.06 25.7367 18.076 25.8327 18.092C25.9287 18.1 26.0447 18.112 26.1807 18.128C26.3407 18.128 26.4207 18.256 26.4207 18.512C26.4207 19.056 26.1767 19.66 25.6887 20.324C25.4327 20.676 25.1007 21 24.6927 21.296C24.2287 21.616 23.8247 21.776 23.4807 21.776C23.1607 21.776 22.9207 21.632 22.7607 21.344C22.2407 22.4 21.9647 23.448 21.9327 24.488C21.9327 24.576 21.9887 24.64 22.1007 24.68C22.2127 24.72 22.2567 24.76 22.2327 24.8C22.2007 24.856 22.1367 24.884 22.0407 24.884ZM23.2647 21.404C23.4967 21.404 23.8247 21.264 24.2487 20.984C24.4567 20.848 24.6407 20.7 24.8007 20.54C24.9607 20.38 25.0967 20.212 25.2087 20.036C25.6327 19.372 25.8447 18.876 25.8447 18.548C25.8447 18.396 25.7847 18.32 25.6647 18.32C25.3447 18.32 24.8167 18.732 24.0807 19.556C23.3847 20.308 23.0367 20.852 23.0367 21.188C23.0367 21.332 23.1127 21.404 23.2647 21.404Z" fill="white"/>
<path d="M29.0078 21.704C28.8318 21.72 28.6638 21.676 28.5038 21.572C28.3438 21.46 28.2638 21.336 28.2638 21.2C28.2638 20.952 28.4998 20.476 28.9718 19.772C29.4918 18.988 29.7518 18.536 29.7518 18.416C29.7518 18.344 29.7118 18.308 29.6318 18.308C29.4238 18.308 29.0238 18.616 28.4318 19.232C28.0798 19.584 27.7478 19.964 27.4358 20.372C27.1318 20.772 26.8438 21.196 26.5718 21.644C26.5558 21.66 26.5118 21.668 26.4398 21.668C26.0878 21.668 25.9278 21.62 25.9598 21.524C26.0958 21.156 26.2678 20.744 26.4758 20.288C26.6838 19.832 26.9318 19.324 27.2198 18.764C28.1718 16.924 28.8198 15.872 29.1638 15.608C29.2598 15.536 29.3918 15.5 29.5598 15.5C29.8398 15.5 29.9798 15.556 29.9798 15.668C29.9798 15.692 29.9558 15.724 29.9078 15.764C28.8598 16.54 27.9318 18 27.1238 20.144C27.1318 20.136 27.1718 20.1 27.2438 20.036C27.3238 19.964 27.4358 19.86 27.5798 19.724C27.7318 19.588 27.8598 19.464 27.9638 19.352C28.0758 19.232 28.1718 19.128 28.2518 19.04C28.6438 18.6 29.0758 18.272 29.5478 18.056C29.6598 18.008 29.7878 17.984 29.9318 17.984C30.2598 17.984 30.4238 18.104 30.4238 18.344C30.4238 18.496 30.3478 18.676 30.1958 18.884C29.3318 20.092 28.8998 20.904 28.8998 21.32C28.8998 21.408 28.9278 21.464 28.9838 21.488C29.1118 21.544 29.4278 21.412 29.9318 21.092C30.5238 20.708 31.0278 20.232 31.4438 19.664C31.5318 19.544 31.6118 19.484 31.6838 19.484C31.7078 19.484 31.7198 19.492 31.7198 19.508C31.7198 19.548 31.6838 19.624 31.6118 19.736C31.2598 20.288 30.7718 20.776 30.1478 21.2C29.5878 21.568 29.2078 21.736 29.0078 21.704Z" fill="white"/>
<path d="M31.9447 21.716C31.3607 21.716 31.0687 21.356 31.0687 20.636C31.0687 19.916 31.3567 19.228 31.9327 18.572C31.9407 18.564 31.9367 18.536 31.9207 18.488C31.9047 18.432 31.8967 18.392 31.8967 18.368C31.8967 18.32 31.9127 18.284 31.9447 18.26C32.2247 18.036 32.5527 17.924 32.9287 17.924C33.0327 17.924 33.1167 17.944 33.1807 17.984C33.2607 18.016 33.3367 18.048 33.4087 18.08C33.4807 18.112 33.5487 18.148 33.6127 18.188C33.9167 18.372 34.1287 18.564 34.2487 18.764C34.4487 18.756 34.6167 18.748 34.7527 18.74C34.8887 18.732 34.9927 18.724 35.0647 18.716H35.1127C35.1847 18.716 35.2207 18.744 35.2207 18.8C35.2207 18.816 35.2047 18.828 35.1727 18.836C35.0847 18.852 34.9687 18.872 34.8247 18.896C34.6887 18.92 34.5207 18.944 34.3207 18.968C34.3447 19.024 34.3567 19.088 34.3567 19.16C34.3567 19.216 34.3527 19.256 34.3447 19.28C34.2247 19.928 33.9087 20.496 33.3967 20.984C32.9007 21.472 32.4167 21.716 31.9447 21.716ZM33.9607 18.764C33.8327 18.564 33.5807 18.464 33.2047 18.464C32.9167 18.464 32.7287 18.496 32.6407 18.56C32.6167 18.568 32.5927 18.584 32.5687 18.608C32.5447 18.632 32.5167 18.66 32.4847 18.692C32.9327 18.748 33.4247 18.772 33.9607 18.764ZM31.9807 21.524C32.3327 21.524 32.7367 21.272 33.1927 20.768C33.6567 20.264 33.9327 19.776 34.0207 19.304C34.0287 19.264 34.0327 19.232 34.0327 19.208C34.0407 19.176 34.0447 19.148 34.0447 19.124C34.0447 19.076 34.0367 19.028 34.0207 18.98C33.8687 18.988 33.7127 18.992 33.5527 18.992C33.3927 18.992 33.2327 18.992 33.0727 18.992C32.9127 18.992 32.7647 18.992 32.6287 18.992C32.5007 18.992 32.3847 18.988 32.2807 18.98C31.9607 19.412 31.7607 19.76 31.6807 20.024C31.5847 20.32 31.5367 20.604 31.5367 20.876C31.5367 21.308 31.6847 21.524 31.9807 21.524Z" fill="white"/>
<path d="M35.7545 21.788C35.1385 21.652 34.8305 21.372 34.8305 20.948C34.8305 20.828 34.8505 20.688 34.8905 20.528C34.9305 20.36 34.9945 20.176 35.0825 19.976L36.1025 17.684C35.9825 17.7 35.8505 17.716 35.7065 17.732C35.5625 17.748 35.4025 17.764 35.2265 17.78C35.1945 17.78 35.1785 17.752 35.1785 17.696C35.1785 17.584 35.1985 17.52 35.2385 17.504L36.2465 17.36L37.0265 15.776C37.0985 15.632 37.3225 15.56 37.6985 15.56C37.8745 15.56 37.9505 15.58 37.9265 15.62C37.7505 15.9 37.5705 16.184 37.3865 16.472C37.2105 16.752 37.0345 17.032 36.8585 17.312C36.8825 17.304 36.9345 17.296 37.0145 17.288C37.0945 17.28 37.1985 17.272 37.3265 17.264C37.4225 17.256 37.5145 17.252 37.6025 17.252C37.6905 17.244 37.7745 17.24 37.8545 17.24C38.1905 17.24 38.3505 17.256 38.3345 17.288C38.2785 17.344 37.7345 17.452 36.7025 17.612C35.8305 19.26 35.3945 20.424 35.3945 21.104C35.3945 21.352 35.4665 21.5 35.6105 21.548C35.7225 21.58 36.0065 21.432 36.4625 21.104C36.7265 20.912 36.9665 20.704 37.1825 20.48C37.3985 20.248 37.5945 20.004 37.7705 19.748C37.8265 19.668 37.8785 19.628 37.9265 19.628C37.9585 19.628 37.9745 19.644 37.9745 19.676C37.9745 19.708 37.9545 19.756 37.9145 19.82C37.6105 20.308 37.2065 20.768 36.7025 21.2C36.2145 21.624 35.8985 21.82 35.7545 21.788Z" fill="white"/>
<path d="M38.4018 21.716C37.8178 21.716 37.5258 21.356 37.5258 20.636C37.5258 19.916 37.8138 19.228 38.3898 18.572C38.3978 18.564 38.3938 18.536 38.3778 18.488C38.3618 18.432 38.3538 18.392 38.3538 18.368C38.3538 18.32 38.3698 18.284 38.4018 18.26C38.6818 18.036 39.0098 17.924 39.3858 17.924C39.4898 17.924 39.5738 17.944 39.6378 17.984C39.7178 18.016 39.7938 18.048 39.8658 18.08C39.9378 18.112 40.0058 18.148 40.0698 18.188C40.3738 18.372 40.5858 18.564 40.7058 18.764C40.9058 18.756 41.0738 18.748 41.2098 18.74C41.3458 18.732 41.4498 18.724 41.5218 18.716H41.5698C41.6418 18.716 41.6778 18.744 41.6778 18.8C41.6778 18.816 41.6618 18.828 41.6298 18.836C41.5418 18.852 41.4258 18.872 41.2818 18.896C41.1458 18.92 40.9778 18.944 40.7778 18.968C40.8018 19.024 40.8138 19.088 40.8138 19.16C40.8138 19.216 40.8098 19.256 40.8018 19.28C40.6818 19.928 40.3658 20.496 39.8538 20.984C39.3578 21.472 38.8738 21.716 38.4018 21.716ZM40.4178 18.764C40.2898 18.564 40.0378 18.464 39.6618 18.464C39.3738 18.464 39.1858 18.496 39.0978 18.56C39.0738 18.568 39.0498 18.584 39.0258 18.608C39.0018 18.632 38.9738 18.66 38.9418 18.692C39.3898 18.748 39.8818 18.772 40.4178 18.764ZM38.4378 21.524C38.7898 21.524 39.1938 21.272 39.6498 20.768C40.1138 20.264 40.3898 19.776 40.4778 19.304C40.4858 19.264 40.4898 19.232 40.4898 19.208C40.4978 19.176 40.5018 19.148 40.5018 19.124C40.5018 19.076 40.4938 19.028 40.4778 18.98C40.3258 18.988 40.1698 18.992 40.0098 18.992C39.8498 18.992 39.6898 18.992 39.5298 18.992C39.3698 18.992 39.2218 18.992 39.0858 18.992C38.9578 18.992 38.8418 18.988 38.7378 18.98C38.4178 19.412 38.2178 19.76 38.1378 20.024C38.0418 20.32 37.9938 20.604 37.9938 20.876C37.9938 21.308 38.1418 21.524 38.4378 21.524Z" fill="white"/>
<path d="M44.6886 21.68C44.5206 21.68 44.3486 21.64 44.1726 21.56C44.0046 21.48 43.8606 21.36 43.7406 21.2C43.6206 21.032 43.5606 20.832 43.5606 20.6C43.5606 20.28 43.6806 19.916 43.9206 19.508C44.1606 19.1 44.4766 18.74 44.8686 18.428C45.1166 18.228 45.3246 18.092 45.4926 18.02C45.7326 17.916 45.9606 17.864 46.1766 17.864C46.4486 17.864 46.6606 17.952 46.8126 18.128C46.8926 18.208 46.9326 18.292 46.9326 18.38C46.9326 18.524 46.8646 18.596 46.7286 18.596C46.6326 18.596 46.5606 18.536 46.5126 18.416C46.4566 18.248 46.3366 18.164 46.1526 18.164C45.9286 18.164 45.6766 18.288 45.3966 18.536C45.0846 18.784 44.8006 19.124 44.5446 19.556C44.2646 20.02 44.1246 20.428 44.1246 20.78C44.1246 21.124 44.2286 21.34 44.4366 21.428C44.5086 21.46 44.6006 21.476 44.7126 21.476C45.0966 21.476 45.5326 21.316 46.0206 20.996C46.5566 20.652 47.0166 20.208 47.4006 19.664C47.4886 19.544 47.5686 19.484 47.6406 19.484C47.6646 19.484 47.6766 19.492 47.6766 19.508C47.6766 19.548 47.6406 19.624 47.5686 19.736C47.2006 20.304 46.6846 20.792 46.0206 21.2C45.7166 21.384 45.4726 21.512 45.2886 21.584C45.1126 21.648 44.9126 21.68 44.6886 21.68Z" fill="white"/>
<path d="M47.8354 21.716C47.2514 21.716 46.9594 21.356 46.9594 20.636C46.9594 19.916 47.2474 19.228 47.8234 18.572C47.8314 18.564 47.8274 18.536 47.8114 18.488C47.7954 18.432 47.7874 18.392 47.7874 18.368C47.7874 18.32 47.8034 18.284 47.8354 18.26C48.1154 18.036 48.4434 17.924 48.8194 17.924C48.9234 17.924 49.0074 17.944 49.0714 17.984C49.1514 18.016 49.2274 18.048 49.2994 18.08C49.3714 18.112 49.4394 18.148 49.5034 18.188C49.8074 18.372 50.0194 18.564 50.1394 18.764C50.3394 18.756 50.5074 18.748 50.6434 18.74C50.7794 18.732 50.8834 18.724 50.9554 18.716H51.0034C51.0754 18.716 51.1114 18.744 51.1114 18.8C51.1114 18.816 51.0954 18.828 51.0634 18.836C50.9754 18.852 50.8594 18.872 50.7154 18.896C50.5794 18.92 50.4114 18.944 50.2114 18.968C50.2354 19.024 50.2474 19.088 50.2474 19.16C50.2474 19.216 50.2434 19.256 50.2354 19.28C50.1154 19.928 49.7994 20.496 49.2874 20.984C48.7914 21.472 48.3074 21.716 47.8354 21.716ZM49.8514 18.764C49.7234 18.564 49.4714 18.464 49.0954 18.464C48.8074 18.464 48.6194 18.496 48.5314 18.56C48.5074 18.568 48.4834 18.584 48.4594 18.608C48.4354 18.632 48.4074 18.66 48.3754 18.692C48.8234 18.748 49.3154 18.772 49.8514 18.764ZM47.8714 21.524C48.2234 21.524 48.6274 21.272 49.0834 20.768C49.5474 20.264 49.8234 19.776 49.9114 19.304C49.9194 19.264 49.9234 19.232 49.9234 19.208C49.9314 19.176 49.9354 19.148 49.9354 19.124C49.9354 19.076 49.9274 19.028 49.9114 18.98C49.7594 18.988 49.6034 18.992 49.4434 18.992C49.2834 18.992 49.1234 18.992 48.9634 18.992C48.8034 18.992 48.6554 18.992 48.5194 18.992C48.3914 18.992 48.2754 18.988 48.1714 18.98C47.8514 19.412 47.6514 19.76 47.5714 20.024C47.4754 20.32 47.4274 20.604 47.4274 20.876C47.4274 21.308 47.5754 21.524 47.8714 21.524Z" fill="white"/>
<path d="M53.2891 21.704C53.1131 21.72 52.9451 21.676 52.7851 21.572C52.6251 21.46 52.5451 21.336 52.5451 21.2C52.5451 20.952 52.7811 20.476 53.2531 19.772C53.7731 18.996 54.0331 18.548 54.0331 18.428C54.0331 18.356 53.9971 18.316 53.9251 18.308C53.6931 18.324 53.3331 18.556 52.8451 19.004C52.1491 19.652 51.4971 20.532 50.8891 21.644C50.8731 21.66 50.8291 21.668 50.7571 21.668C50.4131 21.668 50.2571 21.62 50.2891 21.524C50.3771 21.292 50.5291 20.944 50.7451 20.48C50.9691 20.016 51.2571 19.432 51.6091 18.728C51.8491 18.256 52.0931 18.02 52.3411 18.02C52.4211 18.02 52.4731 18.04 52.4971 18.08C52.5131 18.104 52.3451 18.448 51.9931 19.112C51.8251 19.432 51.6931 19.688 51.5971 19.88C51.5011 20.064 51.4331 20.184 51.3931 20.24C51.5291 20.104 51.6891 19.936 51.8731 19.736C52.0651 19.536 52.2851 19.304 52.5331 19.04C52.9251 18.6 53.3571 18.272 53.8291 18.056C53.9411 18.008 54.0691 17.984 54.2131 17.984C54.5411 17.984 54.7051 18.104 54.7051 18.344C54.7051 18.496 54.6291 18.676 54.4771 18.884C53.6131 20.092 53.1811 20.904 53.1811 21.32C53.1811 21.408 53.2091 21.464 53.2651 21.488C53.3931 21.544 53.7091 21.412 54.2131 21.092C54.8051 20.708 55.3091 20.232 55.7251 19.664C55.8131 19.544 55.8931 19.484 55.9651 19.484C55.9891 19.484 56.0011 19.492 56.0011 19.508C56.0011 19.548 55.9651 19.624 55.8931 19.736C55.5411 20.288 55.0531 20.776 54.4291 21.2C53.8691 21.568 53.4891 21.736 53.2891 21.704Z" fill="white"/>
<path d="M56.1802 21.788C55.5642 21.652 55.2562 21.372 55.2562 20.948C55.2562 20.828 55.2762 20.688 55.3162 20.528C55.3562 20.36 55.4202 20.176 55.5082 19.976L56.5282 17.684C56.4082 17.7 56.2762 17.716 56.1322 17.732C55.9882 17.748 55.8282 17.764 55.6522 17.78C55.6202 17.78 55.6042 17.752 55.6042 17.696C55.6042 17.584 55.6242 17.52 55.6642 17.504L56.6722 17.36L57.4522 15.776C57.5242 15.632 57.7482 15.56 58.1242 15.56C58.3002 15.56 58.3762 15.58 58.3522 15.62C58.1762 15.9 57.9962 16.184 57.8122 16.472C57.6362 16.752 57.4602 17.032 57.2842 17.312C57.3082 17.304 57.3602 17.296 57.4402 17.288C57.5202 17.28 57.6242 17.272 57.7522 17.264C57.8482 17.256 57.9402 17.252 58.0282 17.252C58.1162 17.244 58.2002 17.24 58.2802 17.24C58.6162 17.24 58.7762 17.256 58.7602 17.288C58.7042 17.344 58.1602 17.452 57.1282 17.612C56.2562 19.26 55.8202 20.424 55.8202 21.104C55.8202 21.352 55.8922 21.5 56.0362 21.548C56.1482 21.58 56.4322 21.432 56.8882 21.104C57.1522 20.912 57.3922 20.704 57.6082 20.48C57.8242 20.248 58.0202 20.004 58.1962 19.748C58.2522 19.668 58.3042 19.628 58.3522 19.628C58.3842 19.628 58.4002 19.644 58.4002 19.676C58.4002 19.708 58.3802 19.756 58.3402 19.82C58.0362 20.308 57.6322 20.768 57.1282 21.2C56.6402 21.624 56.3242 21.82 56.1802 21.788Z" fill="white"/>
<path d="M58.6236 21.68C58.3916 21.68 58.1875 21.624 58.0115 21.512C57.7795 21.352 57.6635 21.12 57.6635 20.816C57.6635 20.488 57.8036 20.088 58.0835 19.616C58.4595 19 59.0115 18.46 59.7395 17.996C59.9235 17.876 60.1076 17.816 60.2915 17.816C60.5316 17.816 60.7035 17.892 60.8075 18.044C60.8715 18.132 60.9035 18.232 60.9035 18.344C60.9035 18.68 60.6315 19.048 60.0875 19.448C59.9275 19.56 59.7555 19.664 59.5715 19.76C59.3955 19.848 59.2035 19.912 58.9955 19.952L58.4795 20.06C58.2875 20.404 58.1915 20.692 58.1915 20.924C58.1915 21.244 58.3796 21.404 58.7556 21.404C59.0516 21.404 59.4115 21.28 59.8355 21.032C60.4035 20.704 60.8915 20.248 61.2995 19.664C61.3635 19.568 61.4235 19.52 61.4795 19.52C61.5035 19.52 61.5155 19.536 61.5155 19.568C61.5155 19.608 61.4875 19.668 61.4315 19.748C60.6555 20.916 59.7795 21.556 58.8035 21.668C58.7715 21.676 58.7396 21.68 58.7076 21.68C58.6836 21.68 58.6556 21.68 58.6236 21.68ZM58.6236 19.856C58.8475 19.856 59.1355 19.756 59.4875 19.556C59.9835 19.276 60.3315 18.916 60.5315 18.476C60.5875 18.364 60.6155 18.272 60.6155 18.2C60.6155 18.128 60.5875 18.092 60.5315 18.092C60.4275 18.092 60.2155 18.22 59.8955 18.476C59.6636 18.676 59.4355 18.892 59.2115 19.124C58.9955 19.348 58.7875 19.588 58.5875 19.844C58.5795 19.852 58.5915 19.856 58.6236 19.856Z" fill="white"/>
<path d="M61.035 22.076C61.003 22.076 60.987 22.064 60.987 22.04C60.987 21.936 61.259 21.744 61.803 21.464C61.939 21.4 62.063 21.336 62.175 21.272C62.287 21.2 62.383 21.136 62.463 21.08C62.951 20.72 63.195 20.408 63.195 20.144C63.195 19.944 62.999 19.844 62.607 19.844C61.695 19.828 61.239 19.628 61.239 19.244C61.239 19.076 61.311 18.916 61.455 18.764C61.623 18.572 61.903 18.388 62.295 18.212C62.719 18.02 63.107 17.924 63.459 17.924C63.771 17.924 64.007 18 64.167 18.152C64.239 18.224 64.275 18.312 64.275 18.416C64.275 18.528 64.239 18.628 64.167 18.716C64.095 18.804 64.015 18.848 63.927 18.848C63.767 18.848 63.679 18.74 63.663 18.524C63.663 18.372 63.639 18.284 63.591 18.26C63.543 18.236 63.415 18.224 63.207 18.224C62.943 18.224 62.647 18.312 62.319 18.488C61.927 18.688 61.743 18.928 61.767 19.208C61.783 19.368 62.087 19.448 62.679 19.448C63.487 19.448 63.891 19.644 63.891 20.036C63.891 20.46 63.543 20.884 62.847 21.308C62.407 21.58 61.871 21.82 61.239 22.028C61.151 22.06 61.083 22.076 61.035 22.076Z" fill="white"/>
<path d="M65.7193 21.788C65.1033 21.652 64.7953 21.372 64.7953 20.948C64.7953 20.828 64.8153 20.688 64.8553 20.528C64.8953 20.36 64.9593 20.176 65.0473 19.976L66.0673 17.684C65.9473 17.7 65.8153 17.716 65.6713 17.732C65.5273 17.748 65.3673 17.764 65.1913 17.78C65.1593 17.78 65.1433 17.752 65.1433 17.696C65.1433 17.584 65.1633 17.52 65.2033 17.504L66.2113 17.36L66.9913 15.776C67.0633 15.632 67.2873 15.56 67.6633 15.56C67.8393 15.56 67.9153 15.58 67.8913 15.62C67.7153 15.9 67.5353 16.184 67.3513 16.472C67.1753 16.752 66.9993 17.032 66.8233 17.312C66.8473 17.304 66.8993 17.296 66.9793 17.288C67.0593 17.28 67.1633 17.272 67.2913 17.264C67.3873 17.256 67.4793 17.252 67.5673 17.252C67.6553 17.244 67.7393 17.24 67.8193 17.24C68.1553 17.24 68.3153 17.256 68.2993 17.288C68.2433 17.344 67.6993 17.452 66.6673 17.612C65.7953 19.26 65.3593 20.424 65.3593 21.104C65.3593 21.352 65.4313 21.5 65.5753 21.548C65.6873 21.58 65.9713 21.432 66.4273 21.104C66.6913 20.912 66.9313 20.704 67.1473 20.48C67.3633 20.248 67.5593 20.004 67.7353 19.748C67.7913 19.668 67.8433 19.628 67.8913 19.628C67.9233 19.628 67.9393 19.644 67.9393 19.676C67.9393 19.708 67.9193 19.756 67.8793 19.82C67.5753 20.308 67.1713 20.768 66.6673 21.2C66.1793 21.624 65.8633 21.82 65.7193 21.788Z" fill="white"/>
</g>
</svg>
