<svg width="24" height="19" viewBox="0 0 24 19" fill="none" xmlns="http://www.w3.org/2000/svg">
<g clip-path="url(#clip0_91_52)">
<path d="M20.7711 5.21778C20.7711 5.40597 20.7711 5.59416 20.7711 5.78235C20.7711 11.7417 16.1917 18.6421 7.91132 18.6421C5.46483 18.6421 3.01835 17.952 0.948242 16.6347C1.32462 16.6974 1.70101 16.6974 2.01466 16.6974C4.08476 16.6974 6.02941 16.0074 7.6604 14.7528C5.71575 14.6901 4.02203 13.4355 3.39473 11.6163C3.70838 11.679 3.9593 11.679 4.27295 11.679C4.64934 11.679 5.08845 11.6163 5.46483 11.5535C3.332 11.1144 1.82647 9.29525 1.82647 7.09969V7.03696C2.45377 7.41334 3.14381 7.60153 3.89657 7.60153C1.8892 6.34692 1.26189 3.64951 2.5165 1.57941C4.83753 4.40228 8.22497 6.15873 11.8633 6.34692C11.8006 6.03327 11.7379 5.65689 11.7379 5.28051C11.7379 2.77129 13.7452 0.763916 16.2545 0.763916C17.5091 0.763916 18.701 1.26576 19.5792 2.20672C20.5829 2.01852 21.5865 1.64214 22.4648 1.1403C22.1511 2.20672 21.3984 3.08494 20.4574 3.64951C21.3356 3.52405 22.2139 3.33586 23.0921 2.95948C22.402 3.77498 21.6493 4.59047 20.7711 5.21778Z" fill="#333333"/>
</g>
<defs>
<clipPath id="clip0_91_52">
<rect width="22.0811" height="17.9409" fill="white" transform="translate(0.948242 0.763916)"/>
</clipPath>
</defs>
</svg>
